<?xml version="1.0" encoding="UTF-8"?>
<!DOCTYPE svg PUBLIC "-//W3C//DTD SVG 1.1//EN" "http://www.w3.org/Graphics/SVG/1.1/DTD/svg11.dtd">
<svg version="1.1" xmlns="http://www.w3.org/2000/svg" xmlns:xlink="http://www.w3.org/1999/xlink" x="0" y="0" width="3750" height="2501.35" viewBox="0, 0, 3750, 2501.35">
  <defs>
    <linearGradient id="Gradient_1" gradientUnits="userSpaceOnUse" x1="2159.847" y1="1817.593" x2="1675.433" y2="2265.043">
      <stop offset="0" stop-color="#452805"/>
      <stop offset="0" stop-color="#FFF8E3"/>
      <stop offset="0.187" stop-color="#8E602A"/>
      <stop offset="0.584" stop-color="#FFCC84"/>
      <stop offset="0.985" stop-color="#592A0A"/>
      <stop offset="1" stop-color="#592A0A"/>
    </linearGradient>
    <linearGradient id="Gradient_2" gradientUnits="userSpaceOnUse" x1="2661.898" y1="1817.267" x2="2177.484" y2="2264.718">
      <stop offset="0" stop-color="#452805"/>
      <stop offset="0" stop-color="#FFF8E3"/>
      <stop offset="0.187" stop-color="#8E602A"/>
      <stop offset="0.584" stop-color="#FFCC84"/>
      <stop offset="0.985" stop-color="#592A0A"/>
      <stop offset="1" stop-color="#592A0A"/>
    </linearGradient>
    <linearGradient id="Gradient_3" gradientUnits="userSpaceOnUse" x1="3159.95" y1="1821.941" x2="2675.536" y2="2269.392">
      <stop offset="0" stop-color="#452805"/>
      <stop offset="0" stop-color="#FFF8E3"/>
      <stop offset="0.187" stop-color="#8E602A"/>
      <stop offset="0.584" stop-color="#FFCC84"/>
      <stop offset="0.985" stop-color="#592A0A"/>
      <stop offset="1" stop-color="#592A0A"/>
    </linearGradient>
    <linearGradient id="Gradient_4" gradientUnits="userSpaceOnUse" x1="3661.002" y1="1818.615" x2="3176.588" y2="2266.066">
      <stop offset="0" stop-color="#452805"/>
      <stop offset="0" stop-color="#FFF8E3"/>
      <stop offset="0.187" stop-color="#8E602A"/>
      <stop offset="0.584" stop-color="#FFCC84"/>
      <stop offset="0.985" stop-color="#592A0A"/>
      <stop offset="1" stop-color="#592A0A"/>
    </linearGradient>
    <linearGradient id="Gradient_5" gradientUnits="userSpaceOnUse" x1="1665.809" y1="1236.152" x2="431.313" y2="2794.33">
      <stop offset="0" stop-color="#452805"/>
      <stop offset="0" stop-color="#FFF8E3"/>
      <stop offset="0.187" stop-color="#8E602A"/>
      <stop offset="0.584" stop-color="#FFCC84"/>
      <stop offset="0.985" stop-color="#592A0A"/>
      <stop offset="1" stop-color="#592A0A"/>
    </linearGradient>
    <linearGradient id="Gradient_6" gradientUnits="userSpaceOnUse" x1="1700.147" y1="1263.357" x2="465.651" y2="2821.535">
      <stop offset="0" stop-color="#452805"/>
      <stop offset="0" stop-color="#FFF8E3"/>
      <stop offset="0.187" stop-color="#8E602A"/>
      <stop offset="0.584" stop-color="#FFCC84"/>
      <stop offset="0.985" stop-color="#592A0A"/>
      <stop offset="1" stop-color="#592A0A"/>
    </linearGradient>
    <linearGradient id="Gradient_7" gradientUnits="userSpaceOnUse" x1="1738.781" y1="1293.966" x2="504.285" y2="2852.143">
      <stop offset="0" stop-color="#452805"/>
      <stop offset="0" stop-color="#FFF8E3"/>
      <stop offset="0.187" stop-color="#8E602A"/>
      <stop offset="0.584" stop-color="#FFCC84"/>
      <stop offset="0.985" stop-color="#592A0A"/>
      <stop offset="1" stop-color="#592A0A"/>
    </linearGradient>
    <linearGradient id="Gradient_8" gradientUnits="userSpaceOnUse" x1="1767.688" y1="1316.87" x2="533.194" y2="2875.045">
      <stop offset="0" stop-color="#452805"/>
      <stop offset="0" stop-color="#FFF8E3"/>
      <stop offset="0.187" stop-color="#8E602A"/>
      <stop offset="0.584" stop-color="#FFCC84"/>
      <stop offset="0.985" stop-color="#592A0A"/>
      <stop offset="1" stop-color="#592A0A"/>
    </linearGradient>
    <linearGradient id="Gradient_9" gradientUnits="userSpaceOnUse" x1="1821.08" y1="1359.17" x2="586.585" y2="2917.346">
      <stop offset="0" stop-color="#452805"/>
      <stop offset="0" stop-color="#FFF8E3"/>
      <stop offset="0.187" stop-color="#8E602A"/>
      <stop offset="0.584" stop-color="#FFCC84"/>
      <stop offset="0.985" stop-color="#592A0A"/>
      <stop offset="1" stop-color="#592A0A"/>
    </linearGradient>
    <linearGradient id="Gradient_10" gradientUnits="userSpaceOnUse" x1="1850.63" y1="1382.581" x2="616.134" y2="2940.758">
      <stop offset="0" stop-color="#452805"/>
      <stop offset="0" stop-color="#FFF8E3"/>
      <stop offset="0.187" stop-color="#8E602A"/>
      <stop offset="0.584" stop-color="#FFCC84"/>
      <stop offset="0.985" stop-color="#592A0A"/>
      <stop offset="1" stop-color="#592A0A"/>
    </linearGradient>
    <linearGradient id="Gradient_11" gradientUnits="userSpaceOnUse" x1="1899.148" y1="1421.022" x2="664.653" y2="2979.198">
      <stop offset="0" stop-color="#452805"/>
      <stop offset="0" stop-color="#FFF8E3"/>
      <stop offset="0.187" stop-color="#8E602A"/>
      <stop offset="0.584" stop-color="#FFCC84"/>
      <stop offset="0.985" stop-color="#592A0A"/>
      <stop offset="1" stop-color="#592A0A"/>
    </linearGradient>
    <linearGradient id="Gradient_12" gradientUnits="userSpaceOnUse" x1="1936.802" y1="1450.855" x2="702.307" y2="3009.03">
      <stop offset="0" stop-color="#452805"/>
      <stop offset="0" stop-color="#FFF8E3"/>
      <stop offset="0.187" stop-color="#8E602A"/>
      <stop offset="0.584" stop-color="#FFCC84"/>
      <stop offset="0.985" stop-color="#592A0A"/>
      <stop offset="1" stop-color="#592A0A"/>
    </linearGradient>
    <linearGradient id="Gradient_13" gradientUnits="userSpaceOnUse" x1="1969.107" y1="1476.447" x2="734.61" y2="3034.625">
      <stop offset="0" stop-color="#452805"/>
      <stop offset="0" stop-color="#FFF8E3"/>
      <stop offset="0.187" stop-color="#8E602A"/>
      <stop offset="0.584" stop-color="#FFCC84"/>
      <stop offset="0.985" stop-color="#592A0A"/>
      <stop offset="1" stop-color="#592A0A"/>
    </linearGradient>
    <linearGradient id="Gradient_14" gradientUnits="userSpaceOnUse" x1="1650.095" y1="1223.702" x2="415.601" y2="2781.877">
      <stop offset="0" stop-color="#452805"/>
      <stop offset="0" stop-color="#FFF8E3"/>
      <stop offset="0.187" stop-color="#8E602A"/>
      <stop offset="0.584" stop-color="#FFCC84"/>
      <stop offset="0.985" stop-color="#592A0A"/>
      <stop offset="1" stop-color="#592A0A"/>
    </linearGradient>
    <linearGradient id="Gradient_15" gradientUnits="userSpaceOnUse" x1="1754.089" y1="1306.095" x2="519.598" y2="2864.266">
      <stop offset="0" stop-color="#452805"/>
      <stop offset="0" stop-color="#FFF8E3"/>
      <stop offset="0.187" stop-color="#8E602A"/>
      <stop offset="0.584" stop-color="#FFCC84"/>
      <stop offset="0.985" stop-color="#592A0A"/>
      <stop offset="1" stop-color="#592A0A"/>
    </linearGradient>
    <linearGradient id="Gradient_16" gradientUnits="userSpaceOnUse" x1="1882.576" y1="1407.891" x2="648.085" y2="2966.063">
      <stop offset="0" stop-color="#452805"/>
      <stop offset="0" stop-color="#FFF8E3"/>
      <stop offset="0.187" stop-color="#8E602A"/>
      <stop offset="0.584" stop-color="#FFCC84"/>
      <stop offset="0.985" stop-color="#592A0A"/>
      <stop offset="1" stop-color="#592A0A"/>
    </linearGradient>
    <linearGradient id="Gradient_17" gradientUnits="userSpaceOnUse" x1="1945.476" y1="1457.726" x2="710.983" y2="3015.899">
      <stop offset="0" stop-color="#452805"/>
      <stop offset="0" stop-color="#FFF8E3"/>
      <stop offset="0.187" stop-color="#8E602A"/>
      <stop offset="0.584" stop-color="#FFCC84"/>
      <stop offset="0.985" stop-color="#592A0A"/>
      <stop offset="1" stop-color="#592A0A"/>
    </linearGradient>
    <linearGradient id="Gradient_18" gradientUnits="userSpaceOnUse" x1="2024.408" y1="1520.261" x2="789.914" y2="3078.436">
      <stop offset="0" stop-color="#452805"/>
      <stop offset="0" stop-color="#FFF8E3"/>
      <stop offset="0.187" stop-color="#8E602A"/>
      <stop offset="0.584" stop-color="#FFCC84"/>
      <stop offset="0.985" stop-color="#592A0A"/>
      <stop offset="1" stop-color="#592A0A"/>
    </linearGradient>
    <linearGradient id="Gradient_19" gradientUnits="userSpaceOnUse" x1="1180.675" y1="2061.972" x2="1402.734" y2="2082.673">
      <stop offset="0" stop-color="#8E602A"/>
      <stop offset="0.367" stop-color="#FFF8E3"/>
      <stop offset="0.6" stop-color="#FFCC84"/>
      <stop offset="0.985" stop-color="#592A0A"/>
      <stop offset="1" stop-color="#592A0A"/>
    </linearGradient>
    <linearGradient id="Gradient_20" gradientUnits="userSpaceOnUse" x1="1389.818" y1="1806.184" x2="1081.193" y2="2227.719">
      <stop offset="0" stop-color="#452805"/>
      <stop offset="0" stop-color="#FFF8E3"/>
      <stop offset="0.187" stop-color="#8E602A"/>
      <stop offset="0.584" stop-color="#FFCC84"/>
      <stop offset="0.985" stop-color="#592A0A"/>
      <stop offset="1" stop-color="#592A0A"/>
    </linearGradient>
    <linearGradient id="Gradient_21" gradientUnits="userSpaceOnUse" x1="1287.826" y1="1847.323" x2="1095.249" y2="2139.011">
      <stop offset="0" stop-color="#8E602A"/>
      <stop offset="0.367" stop-color="#FFF8E3"/>
      <stop offset="0.6" stop-color="#FFCC84"/>
      <stop offset="0.985" stop-color="#592A0A"/>
      <stop offset="1" stop-color="#592A0A"/>
    </linearGradient>
    <linearGradient id="Gradient_22" gradientUnits="userSpaceOnUse" x1="1206.28" y1="1654.839" x2="1154.529" y2="2068.846">
      <stop offset="0" stop-color="#8E602A"/>
      <stop offset="0.367" stop-color="#FFF8E3"/>
      <stop offset="0.6" stop-color="#FFCC84"/>
      <stop offset="0.985" stop-color="#592A0A"/>
      <stop offset="1" stop-color="#592A0A"/>
    </linearGradient>
    <linearGradient id="Gradient_23" gradientUnits="userSpaceOnUse" x1="1402.526" y1="1685.69" x2="1048.737" y2="2210.1">
      <stop offset="0" stop-color="#452805"/>
      <stop offset="0" stop-color="#FFF8E3"/>
      <stop offset="0.187" stop-color="#8E602A"/>
      <stop offset="0.584" stop-color="#FFCC84"/>
      <stop offset="0.985" stop-color="#592A0A"/>
      <stop offset="1" stop-color="#592A0A"/>
    </linearGradient>
    <linearGradient id="Gradient_24" gradientUnits="userSpaceOnUse" x1="1372.738" y1="1531.364" x2="1035.26" y2="2090.902">
      <stop offset="0" stop-color="#452805"/>
      <stop offset="0" stop-color="#FFF8E3"/>
      <stop offset="0.187" stop-color="#8E602A"/>
      <stop offset="0.584" stop-color="#FFCC84"/>
      <stop offset="0.985" stop-color="#592A0A"/>
      <stop offset="1" stop-color="#592A0A"/>
    </linearGradient>
    <linearGradient id="Gradient_25" gradientUnits="userSpaceOnUse" x1="1311.23" y1="1917.269" x2="1547.09" y2="2106.082">
      <stop offset="0" stop-color="#8E602A"/>
      <stop offset="0.367" stop-color="#FFF8E3"/>
      <stop offset="0.6" stop-color="#FFCC84"/>
      <stop offset="0.985" stop-color="#592A0A"/>
      <stop offset="1" stop-color="#592A0A"/>
    </linearGradient>
    <linearGradient id="Gradient_26" gradientUnits="userSpaceOnUse" x1="1566.081" y1="1634.944" x2="1274.394" y2="2180.681">
      <stop offset="0" stop-color="#452805"/>
      <stop offset="0" stop-color="#FFF8E3"/>
      <stop offset="0.187" stop-color="#8E602A"/>
      <stop offset="0.584" stop-color="#FFCC84"/>
      <stop offset="0.985" stop-color="#592A0A"/>
      <stop offset="1" stop-color="#592A0A"/>
    </linearGradient>
    <linearGradient id="Gradient_27" gradientUnits="userSpaceOnUse" x1="1540.612" y1="1723.648" x2="1197.489" y2="2049.835">
      <stop offset="0" stop-color="#8E602A"/>
      <stop offset="0.367" stop-color="#FFF8E3"/>
      <stop offset="0.6" stop-color="#FFCC84"/>
      <stop offset="0.985" stop-color="#592A0A"/>
      <stop offset="1" stop-color="#592A0A"/>
    </linearGradient>
    <linearGradient id="Gradient_28" gradientUnits="userSpaceOnUse" x1="1569.448" y1="1639.678" x2="1243.26" y2="2072.505">
      <stop offset="0" stop-color="#452805"/>
      <stop offset="0" stop-color="#FFF8E3"/>
      <stop offset="0.187" stop-color="#8E602A"/>
      <stop offset="0.584" stop-color="#FFCC84"/>
      <stop offset="0.985" stop-color="#592A0A"/>
      <stop offset="1" stop-color="#592A0A"/>
    </linearGradient>
    <linearGradient id="Gradient_29" gradientUnits="userSpaceOnUse" x1="840.233" y1="1820.006" x2="1148.857" y2="2118.593">
      <stop offset="0" stop-color="#8E602A"/>
      <stop offset="0.367" stop-color="#FFF8E3"/>
      <stop offset="0.6" stop-color="#FFCC84"/>
      <stop offset="0.985" stop-color="#592A0A"/>
      <stop offset="1" stop-color="#592A0A"/>
    </linearGradient>
    <linearGradient id="Gradient_30" gradientUnits="userSpaceOnUse" x1="1204.788" y1="1713.873" x2="878.6" y2="2145.445">
      <stop offset="0" stop-color="#452805"/>
      <stop offset="0" stop-color="#FFF8E3"/>
      <stop offset="0.187" stop-color="#8E602A"/>
      <stop offset="0.584" stop-color="#FFCC84"/>
      <stop offset="0.985" stop-color="#592A0A"/>
      <stop offset="1" stop-color="#592A0A"/>
    </linearGradient>
    <linearGradient id="Gradient_31" gradientUnits="userSpaceOnUse" x1="752.373" y1="2034.728" x2="950.439" y2="2063.427">
      <stop offset="0" stop-color="#8E602A"/>
      <stop offset="0.367" stop-color="#FFF8E3"/>
      <stop offset="0.6" stop-color="#FFCC84"/>
      <stop offset="0.985" stop-color="#592A0A"/>
      <stop offset="1" stop-color="#592A0A"/>
    </linearGradient>
    <linearGradient id="Gradient_32" gradientUnits="userSpaceOnUse" x1="1102.244" y1="1719.591" x2="758.492" y2="2217.655">
      <stop offset="0" stop-color="#452805"/>
      <stop offset="0" stop-color="#FFF8E3"/>
      <stop offset="0.187" stop-color="#8E602A"/>
      <stop offset="0.584" stop-color="#FFCC84"/>
      <stop offset="0.985" stop-color="#592A0A"/>
      <stop offset="1" stop-color="#592A0A"/>
    </linearGradient>
    <linearGradient id="Gradient_33" gradientUnits="userSpaceOnUse" x1="681.158" y1="1784.149" x2="939.599" y2="2063.917">
      <stop offset="0" stop-color="#8E602A"/>
      <stop offset="0.367" stop-color="#FFF8E3"/>
      <stop offset="0.6" stop-color="#FFCC84"/>
      <stop offset="0.985" stop-color="#592A0A"/>
      <stop offset="1" stop-color="#592A0A"/>
    </linearGradient>
    <linearGradient id="Gradient_34" gradientUnits="userSpaceOnUse" x1="1053.858" y1="1447.913" x2="688.778" y2="2249.584">
      <stop offset="0" stop-color="#452805"/>
      <stop offset="0" stop-color="#FFF8E3"/>
      <stop offset="0.187" stop-color="#8E602A"/>
      <stop offset="0.584" stop-color="#FFCC84"/>
      <stop offset="0.985" stop-color="#592A0A"/>
      <stop offset="1" stop-color="#592A0A"/>
    </linearGradient>
    <linearGradient id="Gradient_35" gradientUnits="userSpaceOnUse" x1="548.517" y1="1813.503" x2="923.634" y2="1842.358">
      <stop offset="0" stop-color="#8E602A"/>
      <stop offset="0.367" stop-color="#FFF8E3"/>
      <stop offset="0.6" stop-color="#FFCC84"/>
      <stop offset="0.985" stop-color="#592A0A"/>
      <stop offset="1" stop-color="#592A0A"/>
    </linearGradient>
    <linearGradient id="Gradient_36" gradientUnits="userSpaceOnUse" x1="367.699" y1="2055.91" x2="1007.529" y2="1717.176">
      <stop offset="0" stop-color="#452805"/>
      <stop offset="0" stop-color="#FFF8E3"/>
      <stop offset="0.187" stop-color="#8E602A"/>
      <stop offset="0.584" stop-color="#FFCC84"/>
      <stop offset="0.985" stop-color="#592A0A"/>
      <stop offset="1" stop-color="#592A0A"/>
    </linearGradient>
    <linearGradient id="Gradient_37" gradientUnits="userSpaceOnUse" x1="124.855" y1="2216.971" x2="975.559" y2="2185.326">
      <stop offset="0" stop-color="#8E602A"/>
      <stop offset="0.367" stop-color="#FFF8E3"/>
      <stop offset="0.6" stop-color="#FFCC84"/>
      <stop offset="0.985" stop-color="#592A0A"/>
      <stop offset="1" stop-color="#592A0A"/>
    </linearGradient>
    <linearGradient id="Gradient_38" gradientUnits="userSpaceOnUse" x1="123.451" y1="2179.214" x2="974.157" y2="2147.569">
      <stop offset="0" stop-color="#8E602A"/>
      <stop offset="0.367" stop-color="#FFF8E3"/>
      <stop offset="0.6" stop-color="#FFCC84"/>
      <stop offset="0.985" stop-color="#592A0A"/>
      <stop offset="1" stop-color="#592A0A"/>
    </linearGradient>
    <linearGradient id="Gradient_39" gradientUnits="userSpaceOnUse" x1="124.186" y1="2198.965" x2="974.891" y2="2167.32">
      <stop offset="0" stop-color="#8E602A"/>
      <stop offset="0.367" stop-color="#FFF8E3"/>
      <stop offset="0.6" stop-color="#FFCC84"/>
      <stop offset="0.985" stop-color="#592A0A"/>
      <stop offset="1" stop-color="#592A0A"/>
    </linearGradient>
    <linearGradient id="Gradient_40" gradientUnits="userSpaceOnUse" x1="123.743" y1="2187.063" x2="974.448" y2="2155.417">
      <stop offset="0" stop-color="#8E602A"/>
      <stop offset="0.367" stop-color="#FFF8E3"/>
      <stop offset="0.6" stop-color="#FFCC84"/>
      <stop offset="0.985" stop-color="#592A0A"/>
      <stop offset="1" stop-color="#592A0A"/>
    </linearGradient>
    <linearGradient id="Gradient_41" gradientUnits="userSpaceOnUse" x1="120.598" y1="2102.512" x2="971.302" y2="2070.866">
      <stop offset="0" stop-color="#8E602A"/>
      <stop offset="0.367" stop-color="#FFF8E3"/>
      <stop offset="0.6" stop-color="#FFCC84"/>
      <stop offset="0.985" stop-color="#592A0A"/>
      <stop offset="1" stop-color="#592A0A"/>
    </linearGradient>
    <linearGradient id="Gradient_42" gradientUnits="userSpaceOnUse" x1="-384.832" y1="1251.923" x2="533.819" y2="2659.219">
      <stop offset="0" stop-color="#452805"/>
      <stop offset="0" stop-color="#FFF8E3"/>
      <stop offset="0.187" stop-color="#8E602A"/>
      <stop offset="0.584" stop-color="#FFCC84"/>
      <stop offset="0.985" stop-color="#592A0A"/>
      <stop offset="1" stop-color="#592A0A"/>
    </linearGradient>
    <linearGradient id="Gradient_43" gradientUnits="userSpaceOnUse" x1="-168.35" y1="1110.61" x2="750.301" y2="2517.905">
      <stop offset="0" stop-color="#452805"/>
      <stop offset="0" stop-color="#FFF8E3"/>
      <stop offset="0.187" stop-color="#8E602A"/>
      <stop offset="0.584" stop-color="#FFCC84"/>
      <stop offset="0.985" stop-color="#592A0A"/>
      <stop offset="1" stop-color="#592A0A"/>
    </linearGradient>
    <linearGradient id="Gradient_44" gradientUnits="userSpaceOnUse" x1="-306.603" y1="1200.859" x2="612.047" y2="2608.153">
      <stop offset="0" stop-color="#452805"/>
      <stop offset="0" stop-color="#FFF8E3"/>
      <stop offset="0.187" stop-color="#8E602A"/>
      <stop offset="0.584" stop-color="#FFCC84"/>
      <stop offset="0.985" stop-color="#592A0A"/>
      <stop offset="1" stop-color="#592A0A"/>
    </linearGradient>
    <linearGradient id="Gradient_45" gradientUnits="userSpaceOnUse" x1="-239.309" y1="1156.925" x2="679.341" y2="2564.219">
      <stop offset="0" stop-color="#452805"/>
      <stop offset="0" stop-color="#FFF8E3"/>
      <stop offset="0.187" stop-color="#8E602A"/>
      <stop offset="0.584" stop-color="#FFCC84"/>
      <stop offset="0.985" stop-color="#592A0A"/>
      <stop offset="1" stop-color="#592A0A"/>
    </linearGradient>
    <linearGradient id="Gradient_46" gradientUnits="userSpaceOnUse" x1="-153.629" y1="1101" x2="765.019" y2="2508.292">
      <stop offset="0" stop-color="#452805"/>
      <stop offset="0" stop-color="#FFF8E3"/>
      <stop offset="0.187" stop-color="#8E602A"/>
      <stop offset="0.584" stop-color="#FFCC84"/>
      <stop offset="0.985" stop-color="#592A0A"/>
      <stop offset="1" stop-color="#592A0A"/>
    </linearGradient>
  </defs>
  <g id="Layer_1">
    <path d="M3750,0 L3750,2501.35 L0,2501.35 L0,0 L3750,0 z" fill="#2D343D"/>
    <path d="M1751.827,2051.208 C1751.827,2136.871 1821.271,2206.314 1906.933,2206.314 L1906.933,2206.314 C1992.596,2206.314 2062.039,2136.871 2062.039,2051.208 L2062.039,2051.208 C2062.039,1965.545 1992.596,1896.102 1906.933,1896.102 L1906.933,1896.102 C1821.271,1896.102 1751.827,1965.545 1751.827,2051.208 z" fill="url(#Gradient_1)"/>
    <path d="M2253.878,2050.881 C2253.878,2136.545 2323.322,2205.988 2408.984,2205.988 L2408.984,2205.988 C2494.648,2205.988 2564.091,2136.545 2564.091,2050.881 L2564.091,2050.881 C2564.091,1965.219 2494.648,1895.775 2408.984,1895.775 L2408.984,1895.775 C2323.322,1895.775 2253.878,1965.219 2253.878,2050.881 z" fill="url(#Gradient_2)"/>
    <path d="M2751.93,2055.556 C2751.93,2141.218 2821.374,2210.662 2907.036,2210.662 L2907.036,2210.662 C2992.699,2210.662 3062.142,2141.218 3062.142,2055.556 L3062.142,2055.556 C3062.142,1969.893 2992.699,1900.45 2907.036,1900.45 L2907.036,1900.45 C2821.374,1900.45 2751.93,1969.893 2751.93,2055.556 z" fill="url(#Gradient_3)"/>
    <path d="M3252.982,2052.23 C3252.982,2137.893 3322.426,2207.336 3408.088,2207.336 L3408.088,2207.336 C3493.751,2207.336 3563.194,2137.893 3563.194,2052.23 L3563.194,2052.23 C3563.194,1966.567 3493.751,1897.124 3408.088,1897.124 L3408.088,1897.124 C3322.426,1897.124 3252.982,1966.567 3252.982,2052.23 z" fill="url(#Gradient_4)"/>
    <path d="M1869.2,1979.9 C1867.2,1974.3 1866.8,1969.5 1868.4,1966.1 C1871.6,1958.7 1874.8,1956.9 1878.6,1960.5 C1879.4,1960.9 1880.6,1962.5 1882,1965.3 C1883.2,1968.1 1885,1970.3 1887.2,1971.9 C1889.2,1973.9 1890.6,1975.9 1892,1977.5 C1892.4,1978.3 1892,1979.9 1890.6,1981.9 C1889.2,1983.9 1886.4,1984.7 1882.8,1983.9 C1879,1983.1 1875.8,1982.7 1873.4,1982.5 C1871.2,1982.5 1869.6,1981.7 1869.2,1979.9 z M1864.2,1996.7 C1870.4,1994.7 1882.6,1992.5 1901,1989.7 C1903.4,1988.9 1904.8,1990.7 1905,1994.5 C1905,1998.7 1903.2,2001.1 1899.6,2001.5 C1896.6,2002.3 1893.4,2002.9 1890.2,2003.5 C1890.2,2004.7 1891,2005.5 1892.6,2005.5 C1894.6,2005.9 1897,2007.1 1900,2008.7 C1902.8,2010.3 1903.4,2011.9 1901.8,2013.7 C1900.2,2015.3 1898.8,2017.1 1897.6,2018.7 C1896,2020.3 1894,2022.5 1891.8,2024.9 C1890.2,2026.3 1889.4,2027.9 1889.4,2030.1 C1893.8,2029.3 1898.8,2028.5 1904.8,2027.5 C1906,2026.7 1906.8,2028.9 1907.8,2034.1 C1908.6,2039.1 1907,2040.9 1903.2,2039.1 C1897.4,2039.9 1891.2,2040.9 1885.4,2041.7 C1884.2,2044.3 1883.6,2047.3 1883.6,2051.3 C1883.2,2051.7 1883.2,2052.3 1883.6,2052.5 C1885.2,2052.3 1886.8,2051.9 1888.6,2051.5 C1897.6,2047.9 1901.8,2047.7 1901.8,2050.9 C1901.4,2054.1 1901.4,2056.7 1902.2,2058.5 C1902.6,2060.5 1899.2,2061.1 1892.6,2060.5 C1889.2,2061.3 1886,2062.1 1883.2,2062.9 C1882.8,2064.5 1882.8,2066.3 1883.2,2067.9 C1887.2,2069.9 1892.2,2071.7 1898.4,2073.3 C1900.4,2074.1 1901.4,2076.7 1901.4,2080.7 C1901,2085.1 1899.2,2086.7 1896.2,2085.9 C1890.2,2083.9 1886,2082.7 1883.4,2082.1 C1883.4,2091.5 1884,2101.3 1885.2,2111.1 C1885.2,2120.5 1883.6,2124.3 1881,2122.5 C1866.4,2112.7 1856.6,2104.1 1851.2,2096.7 C1850.8,2096.5 1850.6,2096.3 1850.8,2096.1 C1849.2,2098.5 1848.2,2100.7 1847.8,2102.7 C1846.8,2107.7 1845,2109.5 1842.6,2107.7 C1839.8,2106.1 1837.4,2103.1 1835,2098.7 C1832.2,2094.3 1831.6,2092.3 1833,2091.9 C1834.2,2091.9 1835.2,2091.7 1836.2,2090.9 C1843.6,2085.9 1852.4,2081.1 1863,2076.1 C1863.8,2075.7 1864.2,2075.9 1864.8,2076.3 C1864.8,2076.9 1864.6,2077.5 1864.2,2077.9 C1858.8,2084.1 1854.6,2089.7 1851.8,2094.7 C1851.8,2094.9 1852.2,2095.1 1853,2095.3 C1857.2,2097.9 1861.8,2100.3 1866.4,2102.3 C1870,2102.7 1872,2100.7 1872,2096.3 C1872,2086.7 1871.8,2076.9 1871.8,2066.5 C1860.8,2069.9 1855,2072.3 1854.4,2073.3 C1851.2,2076.1 1848.2,2074.7 1845.6,2069.1 C1842.4,2063.7 1843.2,2061.1 1848,2061.5 C1849.2,2061.3 1857,2059.5 1871.8,2055.5 C1871.8,2052.7 1871.8,2050.1 1871.8,2047.3 C1871.8,2046.1 1871.4,2045.1 1871,2044.3 C1869,2044.7 1867,2045.3 1865,2045.7 C1850.2,2049.7 1841.8,2052.3 1840,2053.3 C1835,2056.7 1832.2,2057.1 1831.6,2054.7 C1830.8,2052.5 1829.6,2049.9 1828,2046.9 C1826,2044.3 1826,2042.9 1828,2042.9 C1829.6,2042.9 1831.4,2042.7 1833.6,2042.1 C1841,2040.3 1852,2037.9 1866.4,2035.1 C1866.8,2034.9 1867.6,2034.7 1868.6,2034.5 C1874.4,2029.3 1878.4,2025.5 1880.8,2022.3 C1883,2018.9 1884.6,2016.1 1885.2,2014.1 C1885.2,2010.9 1883.8,2009.7 1881,2010.1 C1878,2010.5 1876,2011.3 1874.8,2012.9 C1869,2020.7 1864.8,2026.1 1863,2028.3 C1861.8,2030.7 1859.8,2031.3 1857.2,2029.9 C1854.6,2028.7 1854,2026.7 1855.6,2023.1 C1860.6,2014.5 1863,2009.3 1863,2007.3 C1856.2,2008.5 1851.2,2010.3 1847.8,2012.5 C1845.6,2014.1 1844.2,2012.5 1843.4,2007.9 C1842.2,2003.1 1843,2000.9 1845.4,2000.9 C1851.2,2000.3 1857.4,1998.9 1864.2,1996.7 z M1918.6,1995.1 C1931.4,1991.7 1945.8,1985.1 1961,1975.1 C1963.4,1972.7 1965.2,1972.7 1966.8,1975.1 C1968,1977.5 1969.6,1980.5 1971.6,1983.7 C1973,1986.9 1972.6,1989.1 1969.8,1990.1 C1965.4,1990.5 1962.2,1991.5 1959.8,1992.9 C1957,1994.3 1949.4,1998.1 1936.8,2003.5 C1934,2004.3 1932.4,2007.3 1932,2012.1 C1931.6,2018.5 1931.4,2024.7 1931,2030.7 C1939,2028.3 1948,2026.1 1959,2023.3 C1964.4,2022.1 1970,2021.1 1975.4,2020.3 C1980.6,2019.5 1983.6,2019.1 1984.8,2018.5 C1986,2018.1 1987,2019.1 1988,2020.9 C1988.8,2022.9 1989.8,2024.3 1991.6,2024.9 C1992.8,2025.7 1993.6,2028.1 1994,2032.3 C1994,2036.3 1992.8,2037.7 1990.4,2036.5 C1983,2035.1 1974.6,2034.9 1965.6,2035.9 C1965.2,2036.7 1965.2,2037.7 1965.4,2038.5 C1965.4,2053.7 1965,2065.9 1964.6,2074.5 C1964,2083.1 1963.4,2099.5 1962.6,2123.5 C1962.6,2128.7 1963.2,2132.5 1964.4,2134.5 C1965.4,2136.3 1964.4,2137.5 1961.2,2137.7 C1957.2,2138.5 1953.6,2138.7 1950,2137.9 C1947.4,2137.9 1947.2,2137.1 1949,2135.3 C1950.6,2133.7 1951.4,2130.3 1951.4,2125.3 C1951.4,2074.3 1951.2,2046.3 1951,2041.7 C1950.6,2040.5 1950.4,2039.5 1950.4,2038.5 C1941.8,2040.1 1935.2,2042.1 1930.4,2044.1 C1930,2044.3 1929.6,2044.3 1929.6,2044.3 C1928,2052.1 1926.2,2059.9 1924.2,2067.7 C1923.4,2070.3 1923.6,2073.3 1924.8,2076.3 C1925.6,2079.3 1925.2,2082.1 1923.2,2084.1 C1915.4,2096.5 1907.2,2104.1 1898.2,2106.7 C1894.4,2107.3 1893.8,2105.9 1896.2,2102.5 C1906.6,2089.5 1913.4,2076.5 1916,2062.9 C1918.4,2050.9 1919.8,2041.5 1920.6,2034.9 C1920.2,2034.1 1920.2,2033.5 1920.8,2032.7 C1920.8,2031.3 1920.8,2030.1 1921,2028.9 C1920.6,2021.7 1920.2,2015.3 1920,2009.7 C1919.6,2006.1 1918.6,2002.9 1917.4,2000.3 C1915.8,1997.5 1916.2,1995.9 1918.6,1995.1 z" fill="#3E3F3F"/>
    <path d="M2355.8,2021.4 C2367.4,2005 2375.4,1992.8 2379,1984.6 C2382.2,1976.4 2384,1971.2 2384.6,1968.4 C2385,1964 2387.8,1963.4 2392.6,1966.6 C2397.4,1970 2400.6,1972.4 2403,1973.6 C2405,1975.2 2404.4,1977 2401.4,1978.8 C2399.2,1980 2397.2,1982.2 2395.4,1985.4 C2393.8,1987.4 2392.2,1990.2 2389.8,1993.6 C2395.6,1993 2409.6,1990.6 2432,1986.6 C2439.8,1984.4 2443.6,1984.2 2443.6,1986 C2443.6,1987.8 2443.6,1990.2 2443.8,1993.2 C2443.8,1996.4 2442,1998.6 2438.2,1999.4 C2432.8,2001.4 2427,2003.2 2420.8,2004.4 C2420.8,2011.4 2420.8,2018 2420.8,2024 C2428.2,2022.8 2437.2,2021.2 2448,2019.2 C2449.6,2018.4 2450.8,2021.2 2451.6,2027.2 C2452.4,2033.4 2450.6,2035.6 2445.8,2033.2 C2437.6,2033.8 2429.2,2034.8 2420.6,2036 C2420.6,2043.8 2420.4,2050.6 2420.4,2056.4 C2420,2058.4 2420,2060.8 2420,2063.6 C2432.2,2062.2 2444.2,2061.2 2456,2060.6 C2468.8,2060.2 2476.4,2059.4 2478.8,2058 C2480,2057.6 2481,2058.8 2482.2,2061.2 C2483,2063.6 2484.2,2065.4 2486,2066.2 C2487.6,2067.2 2488.2,2070.2 2488.2,2074.8 C2487.8,2079.6 2486.2,2081.2 2483.8,2079.4 C2465,2075 2443.6,2074 2419.6,2076.4 C2419.2,2089.8 2418.6,2107.4 2418.2,2129.4 C2418.2,2134.4 2418.8,2138 2420,2139.8 C2421.2,2141.6 2420.2,2142.8 2417.2,2143 C2413.6,2143.6 2410,2143.6 2406.6,2143 C2404.2,2143 2403.8,2142.2 2405.8,2140.4 C2407.4,2139 2408,2135.8 2408,2131.2 C2407.6,2111 2407.4,2093.2 2407.6,2077.6 C2378.2,2081.4 2355.4,2086 2339,2091.6 C2337,2092.8 2334.2,2090.4 2330.8,2084.4 C2327.2,2078.6 2329.2,2076.6 2336.6,2078.4 C2345.2,2076.4 2354.6,2074.6 2365,2072.8 C2366.6,2069.6 2368.2,2065.2 2370,2059 C2371.2,2054.4 2372,2050.6 2372.4,2047.8 C2369.6,2049 2367.8,2048.8 2367.4,2047 C2366.8,2044.4 2365.4,2041.6 2363.8,2038.8 C2361.8,2036 2361.8,2034.6 2364,2034.4 C2365.6,2034.4 2367.4,2034.2 2369.8,2033.8 C2378,2032 2390.2,2029.8 2406,2026.8 C2406,2026.8 2406.4,2026.8 2407.2,2026.4 C2406.8,2016.2 2406.6,2009.8 2406.6,2007 C2399.2,2008.4 2394.6,2010.2 2393,2012 C2391.6,2014.2 2389.4,2011.4 2387,2004 C2386.2,2002.4 2385.6,2001 2385.6,1999.8 C2384.8,2000.6 2384.2,2001.6 2384,2002.4 C2378,2010.6 2371.4,2017.8 2363.8,2024 C2359,2027.4 2355.8,2028.8 2353.6,2028.2 C2351.2,2027.8 2351.8,2025.6 2355.8,2021.4 z M2407.4,2065.4 C2407,2055.2 2407,2046.2 2407.2,2038.4 C2406,2038.6 2404.8,2038.8 2404,2039 C2395.4,2040.4 2389,2042 2384.6,2043.2 C2387.4,2044.6 2388.4,2046.2 2387.4,2048 C2386.2,2049 2385.6,2050.8 2385.4,2053.2 C2385,2055.8 2384.2,2059 2383.4,2063 C2382.2,2066 2381.4,2068.4 2381,2069.8 C2389.2,2068.4 2398,2067 2407.4,2065.4 z" fill="#3E3F3F"/>
    <path d="M2937.4,2087.6 C2935,2085.2 2936,2084.2 2940,2084.2 C2956.4,2091 2970.6,2098.8 2982.4,2107.4 C2983.4,2108.2 2983.2,2112 2982.2,2118.8 C2980.6,2125.8 2978.6,2129.8 2976.4,2130.4 C2974.2,2131.2 2972.6,2130.6 2971.8,2128.8 C2970.6,2126.8 2969,2124.4 2967,2120.8 C2954.6,2106.4 2944.6,2095.4 2937.4,2087.6 z M2991.6,2072 C2976.8,2068.6 2959.8,2068.2 2940.4,2070.6 C2935.6,2071 2931.2,2071.6 2927,2072.4 C2926.2,2074.8 2925.6,2077 2925.2,2079.2 C2921,2092.4 2920,2099.6 2922.4,2101 C2924,2102.2 2920.2,2107.2 2911.2,2115.6 C2902.2,2124.2 2893.6,2128.2 2885.8,2127.8 C2883.4,2128.2 2882.2,2128.2 2882.2,2127.4 C2881.8,2126.8 2883,2125.8 2885.6,2123.8 C2896.6,2116 2905.8,2105.4 2913.2,2092.2 C2914.4,2088.2 2915.6,2082.2 2917,2074 C2905,2076 2895,2078.6 2887.4,2081.4 C2885.4,2082.6 2883,2080.4 2879.8,2075 C2876.2,2069.4 2878,2067.6 2885,2069.2 C2894.8,2067 2906,2064.6 2918.6,2061.8 C2919.4,2054.2 2920.2,2045 2921.2,2034 L2921.2,2033.8 C2912.6,2036.8 2906.6,2039.6 2902.8,2042 C2898.6,2044 2897,2042.6 2898.2,2038 C2899.4,2033.4 2900,2030 2900.6,2027.6 C2901,2025.6 2902.6,2024.8 2905.8,2025.4 C2908.4,2025 2913.8,2023.6 2922,2021 C2923.2,1998.4 2923.4,1984 2922.6,1977.4 C2921.4,1973.6 2924,1972.6 2930.6,1974.4 C2936.8,1976.2 2939.4,1978.2 2938.4,1980 C2936.8,1982.4 2935.2,1994.8 2933.8,2017.4 C2942,2015.6 2949.8,2014.8 2957,2015 C2960,2015.4 2964.4,2017 2970,2019.6 C2975.4,2022.4 2977,2024 2974.8,2024.4 C2972.4,2025.6 2968.6,2030.4 2963.8,2039 C2959.8,2045.2 2958.6,2050.8 2960.2,2055.2 C2963.4,2054.8 2966.8,2054.6 2970.4,2054.4 C2979.4,2053.8 2984.8,2053 2986.8,2052.2 C2988,2051.8 2989,2052.8 2990,2055 C2990.8,2057.4 2991.8,2059 2993.6,2059.6 C2995.2,2060.4 2995.8,2063.2 2995.8,2067.4 C2995.4,2072 2994,2073.6 2991.6,2072 z M2948.8,2028.8 C2946,2027.2 2940.8,2027.6 2933,2029.8 C2932,2041.2 2930.8,2051.2 2929.6,2059.8 C2933,2059 2937,2058.6 2941.4,2057.8 C2941.4,2057.8 2941.4,2057.8 2941.6,2057.8 C2944,2054.2 2946,2050 2947.8,2044.4 C2949.8,2037 2950,2032 2948.8,2028.8 z M2831.4,2050.2 C2835.6,2040.8 2841.4,2030.4 2849,2018.8 C2849.6,2018 2850.2,2017.8 2851,2018 C2851.4,2018.4 2851.6,2019.2 2851.6,2020 C2849,2034.8 2848.2,2046.4 2849.6,2054.6 C2851.6,2060 2850.8,2062.8 2847.8,2062.8 C2844.2,2062.8 2840,2061.4 2835,2058.6 C2830,2055.8 2827.8,2054 2829,2053 C2829.8,2052.2 2830.6,2051.2 2831.4,2050.2 z M2861.4,2064.4 C2861.8,2038.6 2862.6,2011.2 2863.4,1982.4 C2863,1978 2864.8,1976 2868.8,1976.2 C2872.8,1976.6 2876.8,1978 2881.4,1980 C2883,1981 2883,1982.2 2882.2,1983.4 C2880.6,1984.6 2879.6,1986.8 2879,1990 C2877.4,1995.2 2876,2004.6 2875.2,2018.2 C2876.8,2018 2881.4,2016 2888.6,2011.6 C2890.6,2010.4 2891.8,2012.2 2892.6,2016.6 C2893.4,2021 2892.6,2023.8 2890.6,2025 C2881.2,2032.8 2875.4,2038 2873.8,2040.6 C2873.4,2041.8 2873.4,2042.8 2873.6,2044 C2872,2072.2 2871.2,2090 2871.4,2097.4 C2871.4,2105 2871.6,2113 2872.2,2121.4 C2874.6,2128.4 2874.6,2132 2872.2,2132 C2867.4,2132.6 2863.2,2132.4 2859.4,2131.4 C2856.4,2130.8 2855.4,2130 2856.6,2128.6 C2857.4,2127.2 2857.8,2125.2 2858,2122.4 C2859.6,2109.6 2860.6,2090.4 2861.4,2064.4 z" fill="#3E3F3F"/>
    <path d="M3487.2,2083.8 C3467.6,2079 3445.2,2078.2 3419.4,2081.2 L3419.4,2081.6 C3419,2092.6 3419.4,2107.6 3420.4,2126.8 C3420.4,2133.6 3420.6,2138.2 3421,2140.4 C3421,2142.6 3419.2,2142.8 3415.8,2141.2 C3402.2,2134.8 3390.4,2126.2 3380.6,2115.2 C3375.8,2110.2 3375.8,2108.8 3380.6,2111.2 C3390.2,2118.4 3398.6,2121.2 3405.6,2119.6 C3406.4,2119.4 3407,2116.4 3407,2110.8 C3406.6,2105.2 3406.6,2096.4 3407,2084.2 C3407,2083.8 3407,2083.4 3407,2082.8 C3398,2083.8 3390,2085 3382.8,2086 C3373.8,2099 3368.2,2110 3365.8,2118.8 C3365.4,2124.2 3364,2126.4 3361.2,2125 C3358,2123.8 3355,2121 3351.8,2116.6 C3348.4,2112.2 3347.4,2110.2 3348.6,2109.8 C3349.8,2109.4 3350.8,2109 3351.8,2108.2 C3357.6,2101.8 3365,2095 3373.6,2088 C3362.6,2090.4 3353.4,2093 3346,2095.4 C3344,2096.6 3341.2,2094.4 3338.2,2088.4 C3334.6,2082.8 3336.4,2080.8 3343.8,2082.8 C3361.8,2078.8 3382.6,2075 3407,2071 C3407,2066 3407,2062.6 3407,2061 C3406.2,2057.4 3408.8,2056.4 3415.4,2058 C3421.6,2059.8 3423.6,2061.4 3421.6,2063.4 C3420.8,2064.2 3420.2,2066.2 3420,2069.2 C3420,2069.2 3420.2,2069.2 3420.6,2069.2 C3434.2,2067.4 3447.6,2066.2 3460.2,2065.6 C3472.8,2065.2 3480.2,2064.4 3482.4,2063.2 C3483.6,2062.8 3484.6,2063.8 3485.8,2066 C3486.6,2068.4 3487.8,2070 3489.6,2071 C3491,2072 3491.6,2074.8 3491.4,2079.2 C3491,2084 3489.8,2085.6 3487.2,2083.8 z M3435.6,2091.8 C3433.2,2089.6 3434,2088.4 3437.8,2088.4 C3451.8,2092.2 3464,2096.8 3474,2102.8 C3475.2,2103.2 3475.4,2106.8 3474.6,2113.4 C3473.8,2120 3472.4,2124 3470.4,2124.8 C3468.4,2125.6 3466.8,2125.2 3465.8,2123.4 C3464.8,2121.8 3463,2119.4 3461,2116.4 C3450,2105.8 3441.4,2097.6 3435.6,2091.8 z M3376.8,2054 C3372.2,2057.2 3367.4,2059.8 3363.2,2061.6 C3357.2,2064.2 3353.4,2066.2 3351.6,2067.6 C3349.2,2069.8 3346.8,2069 3344,2064.4 C3341.2,2060.2 3340.2,2057.6 3340.4,2056.4 C3340.8,2055.4 3342.2,2054.6 3344.6,2054.2 C3345.8,2053.8 3347.2,2053.6 3348.8,2053.4 C3352,2049.2 3356,2043.8 3360.4,2036.8 C3361.2,2035.4 3362,2033.8 3363.2,2032 C3360.8,2031.8 3357.8,2032.4 3354.4,2034 C3348.8,2036 3345.6,2037.6 3344,2039 C3342.8,2040.6 3342,2040.8 3341.4,2039.2 C3340.6,2038 3339.4,2036 3337.6,2033.4 C3335.6,2030.8 3335.4,2029.2 3337.2,2028.6 C3342.2,2028.6 3347.6,2023.6 3353.4,2013 C3358.8,2002.6 3362.8,1995.6 3365.2,1992.2 C3367,1988.8 3368.8,1986 3370,1984.2 C3371.2,1982.6 3372.8,1982.8 3375,1984.4 C3377,1986.2 3379,1988.2 3380.6,1989.8 C3381.8,1991.6 3381.6,1992.8 3380,1993.6 C3377.6,1995.6 3373.4,2001.2 3367.2,2009.8 C3361,2018.6 3359,2022.8 3361.6,2022.4 C3365.2,2021.4 3368.2,2020.6 3370.8,2019.8 C3372.8,2016.8 3374.4,2014 3376.2,2011.2 C3377,2008.8 3378.4,2008.2 3380.8,2009.6 C3382.6,2011 3384.8,2012 3387.6,2013.2 C3390,2014.6 3389.6,2016.2 3386.8,2018 C3383.2,2020.2 3378.6,2025.8 3372.6,2034.4 C3366.2,2042.6 3363.2,2047.8 3363.4,2049.8 C3364.6,2049.6 3365.8,2049.2 3367.4,2048.8 C3370.6,2047.6 3373.4,2046.8 3375.8,2046 C3375.8,2043.8 3376.2,2041.8 3377.2,2039.8 C3379.6,2036 3381.6,2035.2 3383.2,2037.4 C3383.6,2038.2 3384.2,2040 3384.8,2042.6 C3385.2,2045.2 3386,2047.6 3387.2,2049.4 C3388,2051.6 3389,2053.4 3389.8,2055.2 C3390.2,2055.8 3389.8,2056.6 3388.8,2057.6 C3387.6,2058.6 3386,2058.8 3384.2,2058 C3382,2057.2 3380.4,2056.8 3379.2,2056.4 C3377.6,2056.2 3377,2055.6 3377,2054.6 C3376.6,2054.4 3376.6,2054.2 3376.8,2054 z M3462.6,2047.4 C3452.4,2050.2 3445,2053.6 3440,2057.6 C3438.8,2059.4 3437.2,2057.4 3435.2,2051.6 C3433.2,2045.6 3433,2043 3435,2043.2 C3435.4,2043.2 3437.2,2043 3440.4,2042.2 C3443.8,2038 3447.8,2032.4 3452.4,2025.4 C3452.8,2024.8 3453.2,2024 3453.6,2023.2 C3452.4,2023.6 3451.6,2024 3451,2024.2 C3446.8,2025.8 3444.6,2026.8 3444.4,2027 C3440.4,2030 3438,2030.6 3437.2,2028.4 C3436.4,2026.6 3435.2,2024.4 3433.6,2022 C3431.8,2019.8 3431.8,2018.8 3433.4,2018.6 C3434.2,2018.4 3435.6,2018.2 3437.2,2017.8 C3439.6,2014 3442,2009.2 3444.8,2003.2 C3448.4,1995 3451.4,1988.2 3454.2,1982.8 C3454.6,1979.8 3456.4,1979 3459,1980.2 C3461.4,1981.6 3464,1982.8 3466.8,1984 C3469.6,1985.2 3469.4,1986.8 3466.6,1989.2 C3464.4,1991 3461,1994.8 3457,2001 C3452.6,2007.2 3450.4,2011 3450.6,2012.6 C3450.6,2013 3450.6,2013.6 3451,2014 C3453,2013.6 3456.4,2013 3460.8,2011.8 C3463.2,2008 3465.4,2004.4 3467.6,2001.4 C3468.4,1998.6 3470.2,1998 3472.8,1999.6 C3475,2001.2 3477.4,2002.6 3480.2,2004.2 C3482.4,2005.8 3482.2,2007.6 3479.2,2009.4 C3476,2011.2 3471.2,2016.2 3465,2023.8 C3458.6,2031 3455.6,2036 3455.2,2038.2 C3455.2,2038.2 3455.4,2038.2 3456,2038 C3459.8,2037.2 3462.4,2036 3463.8,2033.8 C3467.2,2031 3471.2,2030.6 3475.4,2032.6 C3479.8,2034.2 3482.4,2037.6 3484,2043.2 C3485.2,2048.8 3485.2,2052.8 3484.2,2054.8 C3483,2057.6 3481.8,2058.6 3479.8,2057.8 C3477.4,2057.2 3474.8,2055.8 3471.8,2053.8 C3465.4,2050.2 3463.6,2048.4 3466,2048.4 C3468.4,2048.4 3470.4,2048 3472.4,2046.8 C3476.6,2043.6 3477.2,2040 3474,2036.2 C3472.2,2035.2 3470,2035 3468,2035.6 C3465.6,2036.2 3464,2039.4 3462.8,2044.8 C3463.6,2046.4 3463.4,2047.4 3462.6,2047.4 z M3391.4,2039.6 C3391.4,2021.4 3391.6,2009.6 3392,2004 C3390.4,2005.2 3389,2006.4 3387.6,2007.4 C3385.6,2008.6 3385.2,2008 3386.6,2005.4 C3388.6,2000.8 3392,1995.4 3397.2,1989.6 C3401.8,1983.8 3406,1978.6 3409.4,1974 C3409.4,1971 3411,1970.6 3413.8,1972.6 C3416,1974.8 3418.4,1976.6 3420.6,1978 C3422.6,1979.6 3423,1980.6 3422,1981 C3419.6,1981.8 3415.6,1984.8 3410.6,1989.4 C3407.4,1991.8 3404,1994.4 3400,1997.6 C3400.8,1997.6 3401.8,1997.4 3403.2,1997 C3406.4,1996.2 3410.6,1995.2 3416.4,1994 C3422,1993 3427.6,1993.4 3433.8,1995 C3437.4,1996.6 3437.6,1998.8 3434.6,2001.6 C3432.2,2005 3431.4,2011.8 3431.8,2021.6 C3431.8,2031.6 3431.8,2042.4 3431.8,2054 C3431.8,2058.6 3430.8,2060.6 3429.2,2060.2 C3427.2,2059.8 3424.6,2058.8 3421.4,2056.8 C3417.8,2055.2 3415.8,2054 3415.6,2052.8 C3415.4,2052.8 3415.4,2052.6 3415.6,2052.4 C3409.8,2053.2 3404.6,2054.2 3399.8,2055.4 C3399,2057.8 3398,2059.4 3396.6,2059.8 C3393.4,2061 3391.8,2059.8 3392,2056 C3391.6,2052.8 3391.4,2047.2 3391.4,2039.6 z M3400,2046 C3407.4,2044.4 3414,2043 3419.4,2042 C3419.4,2039.6 3419.4,2036.8 3419.8,2033.6 C3419.8,2025 3419.8,2018 3420,2012 C3420,2006.2 3419.2,2002.8 3418,2001.8 C3416.8,2001 3414.4,2001.4 3410.6,2002.8 C3406.8,2004.4 3404.4,2006.4 3404,2008.8 C3402.4,2010.4 3401.2,2013.8 3400.8,2019 C3402,2019.6 3403.4,2019.8 3405,2019.4 C3407,2019 3409.2,2018.6 3411.6,2017.8 C3413.2,2017.4 3414.4,2019 3414.8,2022.2 C3414.8,2025.6 3414.4,2027.4 3413.4,2027.6 C3411.4,2028 3409.2,2028.6 3407,2029.4 C3404.4,2030.2 3402,2031.4 3400,2032.8 C3399.6,2036.8 3399.6,2041.4 3400,2046 z" fill="#3E3F3F"/>
    <path d="M949.37,2137.637 L949.37,2138.19 L950.03,2138.19 C950.839,2138.19 951.465,2138.556 951.903,2139.292 L951.903,2139.292 C952.159,2139.695 952.29,2140.081 952.29,2140.448 L952.29,2140.448 C952.29,2140.815 952.196,2141.183 952.014,2141.549 L952.014,2141.549 L943.199,2157.032 L934.934,2141.605 C934.752,2141.238 934.661,2140.861 934.661,2140.475 L934.661,2140.475 C934.661,2140.089 934.769,2139.695 934.991,2139.292 L934.991,2139.292 C935.432,2138.556 936.056,2138.19 936.863,2138.19 L936.863,2138.19 L937.581,2138.19 L937.581,2137.637 L924.028,2137.637 L924.028,2138.19 L924.799,2138.19 C925.901,2138.19 926.956,2138.501 927.966,2139.126 L927.966,2139.126 C928.977,2139.75 929.757,2140.503 930.307,2141.385 L930.307,2141.385 L940.831,2158.96 L940.831,2172.236 C940.795,2173.192 940.435,2173.999 939.755,2174.66 L939.755,2174.66 C939.075,2175.322 938.258,2175.652 937.305,2175.652 L937.305,2175.652 L936.588,2175.652 L936.588,2176.203 L948.598,2176.203 L948.598,2175.652 L947.938,2175.652 C946.945,2175.652 946.111,2175.314 945.431,2174.633 L945.431,2174.633 C944.75,2173.953 944.412,2173.136 944.412,2172.181 L944.412,2172.181 L944.412,2159.014 L955.264,2141.385 C955.924,2140.467 956.741,2139.704 957.717,2139.098 L957.717,2139.098 C958.688,2138.492 959.727,2138.19 960.829,2138.19 L960.829,2138.19 L961.6,2138.19 L961.6,2137.637 z" fill="url(#Gradient_5)"/>
    <path d="M1000.635,2137.307 C999.292,2137.529 998.053,2137.637 996.914,2137.637 L996.914,2137.637 L980.771,2137.637 L980.828,2138.19 L981.489,2138.19 C982.442,2138.19 983.27,2138.492 983.967,2139.098 L983.967,2139.098 C984.665,2139.704 985.015,2140.448 985.015,2141.329 L985.015,2141.329 L985.015,2172.181 C984.978,2173.136 984.619,2173.953 983.939,2174.633 L983.939,2174.633 C983.259,2175.314 982.442,2175.652 981.489,2175.652 L981.489,2175.652 L980.771,2175.652 L980.771,2176.203 L1003.637,2176.203 L1006.831,2167.278 L1006.282,2167.278 C1005.326,2169.665 1004.133,2171.465 1002.699,2172.677 L1002.699,2172.677 C1001.267,2173.889 999.192,2174.495 996.474,2174.495 L996.474,2174.495 L988.595,2174.495 L988.595,2158.022 L997.962,2158.022 C998.696,2158.059 999.311,2158.335 999.807,2158.848 L999.807,2158.848 C1000.302,2159.364 1000.552,2159.987 1000.552,2160.721 L1000.552,2160.721 L1000.552,2161.548 L1001.101,2161.548 L1001.101,2152.843 L1000.552,2152.843 L1000.552,2153.614 C1000.552,2154.386 1000.293,2155.029 999.781,2155.543 L999.781,2155.543 C999.266,2156.058 998.64,2156.333 997.906,2156.369 L997.906,2156.369 L988.595,2156.369 L988.595,2139.347 L999.836,2139.347 C1000.68,2139.384 1001.406,2139.713 1002.009,2140.337 L1002.009,2140.337 C1002.616,2140.963 1002.921,2141.714 1002.921,2142.597 L1002.921,2142.597 L1002.921,2143.587 L1003.47,2143.587 L1003.47,2136.647 C1002.921,2136.866 1001.972,2137.086 1000.635,2137.307 z" fill="url(#Gradient_6)"/>
    <path d="M1045.12,2136.866 C1045.12,2137.675 1044.44,2139.566 1043.083,2142.542 L1043.083,2142.542 L1030.63,2172.181 C1030.081,2173.32 1029.364,2174.184 1028.482,2174.77 L1028.482,2174.77 C1027.602,2175.359 1026.7,2175.652 1025.784,2175.652 L1025.784,2175.652 L1025.288,2175.652 L1025.288,2176.203 L1036.363,2176.203 L1036.363,2175.652 L1035.864,2175.652 C1035.093,2175.652 1034.515,2175.405 1034.131,2174.907 L1034.131,2174.907 C1033.744,2174.413 1033.551,2173.953 1033.551,2173.53 L1033.551,2173.53 C1033.551,2173.109 1033.625,2172.677 1033.772,2172.237 L1033.772,2172.237 L1037.464,2162.816 L1052.339,2162.816 L1055.865,2172.181 C1056.009,2172.622 1056.083,2173.062 1056.083,2173.503 L1056.083,2173.503 C1056.083,2173.944 1055.893,2174.413 1055.506,2174.907 L1055.506,2174.907 C1055.122,2175.405 1054.541,2175.652 1053.77,2175.652 L1053.77,2175.652 L1053.274,2175.652 L1053.274,2176.203 L1065.67,2176.203 L1065.67,2175.652 L1065.231,2175.652 C1064.275,2175.652 1063.356,2175.359 1062.476,2174.77 L1062.476,2174.77 C1061.594,2174.184 1060.896,2173.32 1060.381,2172.181 L1060.381,2172.181 L1045.615,2136.866 z M1045.066,2143.478 L1051.678,2161.162 L1038.125,2161.162 z" fill="url(#Gradient_7)"/>
    <path d="M1084.841,2137.637 L1084.841,2138.19 L1085.559,2138.19 C1086.511,2138.19 1087.329,2138.528 1088.009,2139.208 L1088.009,2139.208 C1088.689,2139.889 1089.048,2140.706 1089.085,2141.66 L1089.085,2141.66 L1089.085,2172.236 C1089.048,2173.192 1088.689,2173.999 1088.009,2174.66 L1088.009,2174.66 C1087.329,2175.322 1086.511,2175.652 1085.559,2175.652 L1085.559,2175.652 L1084.841,2175.652 L1084.841,2176.203 L1096.909,2176.203 L1096.852,2175.652 L1096.192,2175.652 C1095.199,2175.652 1094.365,2175.314 1093.684,2174.633 L1093.684,2174.633 C1093.004,2173.953 1092.666,2173.136 1092.666,2172.181 L1092.666,2172.181 L1092.666,2139.347 L1096.192,2139.347 C1097.512,2139.347 1098.617,2139.365 1099.496,2139.4 L1099.496,2139.4 C1101.554,2139.512 1103.187,2140.32 1104.4,2141.826 L1104.4,2141.826 C1105.613,2143.331 1106.255,2145.315 1106.33,2147.776 L1106.33,2147.776 L1106.33,2149.015 C1106.33,2149.658 1106.219,2150.347 1105.997,2151.082 L1105.997,2151.082 C1104.821,2154.791 1101.958,2156.699 1097.404,2156.811 L1097.404,2156.811 C1096.704,2156.847 1096.118,2156.865 1095.639,2156.865 L1095.639,2156.865 C1095.161,2156.865 1094.777,2156.847 1094.484,2156.811 L1094.484,2156.811 L1094.484,2157.361 C1095.659,2157.361 1096.835,2157.986 1098.01,2159.234 L1098.01,2159.234 C1098.415,2159.675 1098.799,2160.125 1099.166,2160.585 L1099.166,2160.585 C1099.533,2161.045 1100.836,2162.89 1103.079,2166.121 L1103.079,2166.121 C1105.319,2169.354 1106.685,2171.253 1107.184,2171.823 L1107.184,2171.823 C1107.679,2172.393 1108.265,2172.979 1108.945,2173.585 L1108.945,2173.585 C1109.626,2174.192 1110.645,2174.779 1112.002,2175.349 L1112.002,2175.349 C1113.362,2175.918 1114.831,2176.203 1116.411,2176.203 L1116.411,2176.203 L1119.442,2176.203 L1119.442,2175.652 C1118.229,2175.652 1117.091,2175.396 1116.024,2174.881 L1116.024,2174.881 C1115.548,2174.66 1115.07,2174.367 1114.592,2173.999 L1114.592,2173.999 C1114.114,2173.633 1113.673,2173.256 1113.271,2172.87 L1113.271,2172.87 C1112.864,2172.485 1112.187,2171.769 1111.231,2170.721 L1111.231,2170.721 C1110.277,2169.674 1108.22,2166.892 1105.06,2162.375 L1105.06,2162.375 C1104.474,2161.566 1103.802,2160.787 1103.051,2160.034 L1103.051,2160.034 C1102.297,2159.281 1101.645,2158.776 1101.096,2158.518 L1101.096,2158.518 C1103.703,2158.518 1105.914,2157.444 1107.733,2155.295 L1107.733,2155.295 C1109.552,2153.146 1110.46,2150.595 1110.46,2147.637 L1110.46,2147.637 C1110.46,2144.682 1109.506,2142.275 1107.596,2140.42 L1107.596,2140.42 C1105.686,2138.565 1103.059,2137.637 1099.718,2137.637 L1099.718,2137.637 z" fill="url(#Gradient_8)"/>
    <path d="M1173.758,2142.404 C1169.828,2146.095 1167.864,2150.935 1167.864,2156.92 L1167.864,2156.92 C1167.864,2162.907 1169.828,2167.745 1173.758,2171.437 L1173.758,2171.437 C1177.689,2175.128 1182.786,2176.974 1189.047,2176.974 L1189.047,2176.974 C1195.309,2176.974 1200.407,2175.128 1204.337,2171.437 L1204.337,2171.437 C1208.265,2167.745 1210.232,2162.907 1210.232,2156.92 L1210.232,2156.92 C1210.232,2150.935 1208.265,2146.095 1204.337,2142.404 L1204.337,2142.404 C1200.407,2138.712 1195.309,2136.866 1189.047,2136.866 L1189.047,2136.866 C1182.786,2136.866 1177.689,2138.712 1173.758,2142.404 z M1176.761,2170.253 C1173.658,2166.875 1172.107,2162.43 1172.107,2156.92 L1172.107,2156.92 C1172.107,2151.411 1173.658,2146.967 1176.761,2143.587 L1176.761,2143.587 C1179.866,2140.209 1183.95,2138.52 1189.019,2138.52 L1189.019,2138.52 C1194.088,2138.52 1198.175,2140.209 1201.278,2143.587 L1201.278,2143.587 C1204.383,2146.967 1205.934,2151.411 1205.934,2156.92 L1205.934,2156.92 C1205.934,2162.43 1204.383,2166.875 1201.278,2170.253 L1201.278,2170.253 C1198.175,2173.633 1194.088,2175.322 1189.019,2175.322 L1189.019,2175.322 C1183.95,2175.322 1179.866,2173.633 1176.761,2170.253 z" fill="url(#Gradient_9)"/>
    <path d="M1250.974,2137.307 C1249.631,2137.529 1248.393,2137.637 1247.255,2137.637 L1247.255,2137.637 L1231.111,2137.637 L1231.168,2138.19 L1231.829,2138.19 C1232.744,2138.19 1233.565,2138.492 1234.279,2139.098 L1234.279,2139.098 C1234.996,2139.704 1235.355,2140.448 1235.355,2141.329 L1235.355,2141.329 L1235.355,2172.181 C1235.317,2173.136 1234.959,2173.953 1234.279,2174.633 L1234.279,2174.633 C1233.599,2175.314 1232.781,2175.652 1231.829,2175.652 L1231.829,2175.652 L1231.111,2175.652 L1231.111,2176.203 L1243.178,2176.203 L1243.178,2175.652 L1242.462,2175.652 C1241.505,2175.652 1240.679,2175.314 1239.983,2174.633 L1239.983,2174.633 C1239.285,2173.953 1238.936,2173.136 1238.936,2172.181 L1238.936,2172.181 L1238.936,2158.022 L1248.302,2158.022 C1249.036,2158.059 1249.651,2158.335 1250.146,2158.848 L1250.146,2158.848 C1250.641,2159.364 1250.891,2159.987 1250.891,2160.721 L1250.891,2160.721 L1250.891,2161.548 L1251.441,2161.548 L1251.441,2152.843 L1250.891,2152.843 L1250.891,2153.67 C1250.891,2154.406 1250.633,2155.029 1250.12,2155.543 L1250.12,2155.543 C1249.605,2156.058 1248.979,2156.333 1248.245,2156.369 L1248.245,2156.369 L1238.936,2156.369 L1238.936,2139.347 L1250.559,2139.347 C1251.33,2139.347 1251.974,2139.613 1252.489,2140.145 L1252.489,2140.145 C1253.001,2140.677 1253.26,2141.312 1253.26,2142.046 L1253.26,2142.046 L1253.26,2142.872 L1253.809,2142.872 L1253.809,2138.244 L1253.809,2136.647 C1253.26,2136.866 1252.312,2137.086 1250.974,2137.307 z" fill="url(#Gradient_10)"/>
    <path d="M1335.264,2137.169 C1334.071,2137.445 1332.574,2137.584 1330.775,2137.584 L1330.775,2137.584 L1312.152,2137.584 C1311.014,2137.584 1309.765,2137.472 1308.406,2137.251 L1308.406,2137.251 C1307.047,2137.033 1306.093,2136.812 1305.541,2136.592 L1305.541,2136.592 L1305.541,2143.534 L1306.093,2143.478 L1306.093,2142.542 C1306.093,2141.661 1306.394,2140.898 1307.001,2140.255 L1307.001,2140.255 C1307.607,2139.613 1308.35,2139.272 1309.232,2139.235 L1309.232,2139.235 L1319.7,2139.235 L1319.7,2172.291 C1319.664,2173.21 1319.305,2173.999 1318.625,2174.66 L1318.625,2174.66 C1317.944,2175.322 1317.127,2175.652 1316.174,2175.652 L1316.174,2175.652 L1315.457,2175.652 L1315.457,2176.203 L1327.524,2176.203 L1327.524,2175.652 L1326.807,2175.652 C1325.851,2175.652 1325.034,2175.322 1324.357,2174.66 L1324.357,2174.66 C1323.677,2173.999 1323.318,2173.192 1323.281,2172.237 L1323.281,2172.237 L1323.281,2139.235 L1333.749,2139.235 C1334.594,2139.272 1335.329,2139.613 1335.952,2140.255 L1335.952,2140.255 C1336.575,2140.898 1336.888,2141.661 1336.888,2142.542 L1336.888,2142.542 L1336.888,2143.478 L1337.441,2143.534 L1337.441,2136.592 C1337.182,2136.701 1336.456,2136.895 1335.264,2137.169 z" fill="url(#Gradient_11)"/>
    <path d="M1384.434,2137.637 L1384.434,2138.19 L1385.148,2138.19 C1385.771,2138.19 1386.36,2138.336 1386.912,2138.629 L1386.912,2138.629 C1388.048,2139.292 1388.637,2140.283 1388.675,2141.605 L1388.675,2141.605 L1388.675,2156.314 L1366.141,2156.314 L1366.141,2141.605 C1366.178,2140.65 1366.537,2139.842 1367.217,2139.18 L1367.217,2139.18 C1367.894,2138.52 1368.711,2138.19 1369.668,2138.19 L1369.668,2138.19 L1370.385,2138.19 L1370.385,2137.637 L1358.318,2137.637 L1358.318,2138.19 L1359.035,2138.19 C1359.988,2138.19 1360.805,2138.52 1361.485,2139.18 L1361.485,2139.18 C1362.165,2139.842 1362.524,2140.65 1362.561,2141.605 L1362.561,2141.605 L1362.561,2172.236 C1362.524,2173.192 1362.165,2173.999 1361.485,2174.66 L1361.485,2174.66 C1360.805,2175.322 1359.988,2175.652 1359.035,2175.652 L1359.035,2175.652 L1358.318,2175.652 L1358.318,2176.203 L1370.385,2176.203 L1370.385,2175.652 L1369.668,2175.652 C1368.711,2175.652 1367.886,2175.322 1367.188,2174.66 L1367.188,2174.66 C1366.491,2173.999 1366.141,2173.192 1366.141,2172.236 L1366.141,2172.236 L1366.141,2157.967 L1388.675,2157.967 L1388.675,2172.236 C1388.637,2173.155 1388.278,2173.953 1387.601,2174.633 L1387.601,2174.633 C1386.921,2175.314 1386.105,2175.652 1385.148,2175.652 L1385.148,2175.652 L1384.434,2175.652 L1384.434,2176.203 L1396.498,2176.203 L1396.498,2175.652 L1395.782,2175.652 C1394.824,2175.652 1394.008,2175.322 1393.331,2174.66 L1393.331,2174.66 C1392.651,2173.999 1392.292,2173.192 1392.255,2172.236 L1392.255,2172.236 L1392.255,2141.66 C1392.292,2140.706 1392.651,2139.889 1393.331,2139.208 L1393.331,2139.208 C1394.008,2138.528 1394.824,2138.19 1395.782,2138.19 L1395.782,2138.19 L1396.498,2138.19 L1396.498,2137.637 z" fill="url(#Gradient_12)"/>
    <path d="M1438.42,2137.307 C1437.076,2137.529 1435.838,2137.637 1434.7,2137.637 L1434.7,2137.637 L1418.556,2137.637 L1418.613,2138.19 L1419.274,2138.19 C1420.227,2138.19 1421.055,2138.492 1421.752,2139.098 L1421.752,2139.098 C1422.449,2139.704 1422.8,2140.448 1422.8,2141.329 L1422.8,2141.329 L1422.8,2172.181 C1422.762,2173.136 1422.405,2173.953 1421.724,2174.633 L1421.724,2174.633 C1421.044,2175.314 1420.227,2175.652 1419.274,2175.652 L1419.274,2175.652 L1418.556,2175.652 L1418.556,2176.203 L1441.423,2176.203 L1444.615,2167.278 L1444.066,2167.278 C1443.11,2169.665 1441.917,2171.465 1440.483,2172.677 L1440.483,2172.677 C1439.051,2173.889 1436.976,2174.495 1434.259,2174.495 L1434.259,2174.495 L1426.38,2174.495 L1426.38,2158.022 L1435.747,2158.022 C1436.481,2158.059 1437.096,2158.335 1437.591,2158.848 L1437.591,2158.848 C1438.087,2159.364 1438.337,2159.987 1438.337,2160.721 L1438.337,2160.721 L1438.337,2161.548 L1438.886,2161.548 L1438.886,2152.843 L1438.337,2152.843 L1438.337,2153.614 C1438.337,2154.386 1438.078,2155.029 1437.566,2155.543 L1437.566,2155.543 C1437.051,2156.058 1436.424,2156.333 1435.69,2156.369 L1435.69,2156.369 L1426.38,2156.369 L1426.38,2139.347 L1437.62,2139.347 C1438.465,2139.384 1439.191,2139.713 1439.794,2140.337 L1439.794,2140.337 C1440.401,2140.963 1440.705,2141.714 1440.705,2142.597 L1440.705,2142.597 L1440.705,2143.587 L1441.254,2143.587 L1441.254,2136.647 C1440.705,2136.866 1439.757,2137.086 1438.42,2137.307 z" fill="url(#Gradient_13)"/>
    <path d="M866.279,2124.523 C856.611,2133.662 851.778,2145.979 851.778,2161.474 L851.778,2161.474 L851.778,2266.979 L789.201,2266.979 L789.201,2215.724 C789.334,2213.339 789.997,2211.224 791.189,2209.366 L791.189,2209.366 C793.574,2205.394 797.151,2203.406 801.916,2203.406 L801.916,2203.406 L804.499,2203.406 L804.499,2201.421 L744.108,2201.421 L744.108,2203.406 L746.69,2203.406 C750.134,2203.406 753.081,2204.599 755.53,2206.984 L755.53,2206.984 C757.979,2209.366 759.272,2212.282 759.406,2215.724 L759.406,2215.724 L759.406,2332.932 C759.406,2344.323 758.145,2353.458 755.631,2360.347 L755.631,2360.347 C752.85,2368.422 746.558,2374.517 736.756,2378.623 L736.756,2378.623 L737.156,2380.61 C741.655,2381.533 745.826,2382 749.669,2382 L749.669,2382 C761.588,2382 770.726,2378.29 777.084,2370.875 L777.084,2370.875 C785.163,2361.47 789.201,2348.824 789.201,2332.932 L789.201,2332.932 L789.201,2275.521 L851.778,2275.521 L851.778,2326.177 C851.644,2329.622 850.319,2332.534 847.805,2334.917 L847.805,2334.917 C845.287,2337.301 842.308,2338.493 838.865,2338.493 L838.865,2338.493 L836.484,2338.493 L836.484,2340.48 L896.677,2340.48 L896.677,2338.493 L894.292,2338.493 C891.907,2338.493 889.721,2337.898 887.737,2336.705 L887.737,2336.705 C883.63,2334.323 881.508,2330.745 881.379,2325.979 L881.379,2325.979 L881.379,2161.474 C881.508,2150.35 882.77,2141.211 885.154,2134.06 L885.154,2134.06 C888.064,2125.318 894.357,2119.229 904.024,2115.784 L904.024,2115.784 L903.628,2113.797 C900.715,2113.399 897.933,2113.201 895.286,2113.201 L895.286,2113.201 C883.63,2113.201 873.963,2116.974 866.279,2124.523 z" fill="url(#Gradient_14)"/>
    <path d="M979.911,2203.606 C974.874,2206.123 970.97,2209.268 968.19,2213.043 L968.19,2213.043 C965.409,2216.817 963.421,2220.658 962.228,2224.565 L962.228,2224.565 C961.036,2228.471 960.442,2232.709 960.442,2237.278 L960.442,2237.278 C960.442,2241.847 961.634,2246.649 964.015,2251.68 L964.015,2251.68 L966.201,2251.68 C965.275,2248.106 964.811,2244.598 964.811,2241.152 L964.811,2241.152 C964.811,2230.294 968.913,2221.354 977.126,2214.333 L977.126,2214.333 C982.954,2209.435 990.568,2206.984 999.974,2206.984 L999.974,2206.984 C1008.448,2206.984 1016.128,2209.601 1023.019,2214.831 L1023.019,2214.831 C1029.901,2220.063 1035.168,2227.479 1038.81,2237.08 L1038.81,2237.08 C1042.451,2246.683 1044.274,2257.442 1044.274,2269.36 L1044.274,2269.36 C1044.274,2289.096 1039.339,2304.954 1029.473,2316.939 L1029.473,2316.939 C1019.608,2328.927 1006.63,2334.917 990.536,2334.917 L990.536,2334.917 C974.446,2334.917 961.433,2328.561 951.502,2315.846 L951.502,2315.846 C941.567,2303.133 936.6,2286.049 936.6,2264.594 L936.6,2264.594 C936.6,2251.879 938.322,2240.029 941.765,2229.033 L941.765,2229.033 C945.209,2218.042 950.309,2209.7 957.063,2204.003 L957.063,2204.003 L955.87,2202.214 C939.979,2206.586 927.365,2214.831 918.029,2226.948 L918.029,2226.948 C908.692,2239.067 904.024,2253.337 904.024,2269.759 L904.024,2269.759 C904.024,2291.744 912.068,2309.49 928.161,2322.997 L928.161,2322.997 C944.251,2336.507 965.11,2343.26 990.734,2343.26 L990.734,2343.26 C1016.362,2343.26 1037.152,2336.507 1053.113,2322.997 L1053.113,2322.997 C1069.07,2309.49 1077.052,2291.679 1077.052,2269.559 L1077.052,2269.559 C1077.052,2260.157 1075.395,2251.352 1072.084,2243.138 L1072.084,2243.138 C1066.257,2228.174 1055.861,2216.454 1040.895,2207.976 L1040.895,2207.976 C1029.505,2201.489 1017.454,2198.242 1004.742,2198.242 L1004.742,2198.242 C995.071,2198.242 986.793,2200.03 979.911,2203.606 z" fill="url(#Gradient_15)"/>
    <path d="M1082.122,2201.421 L1082.122,2203.406 L1084.705,2203.406 C1088.148,2203.406 1091.091,2204.633 1093.543,2207.083 L1093.543,2207.083 C1095.994,2209.534 1097.286,2212.481 1097.42,2215.922 L1097.42,2215.922 L1097.42,2326.177 C1097.286,2329.622 1095.961,2332.534 1093.448,2334.917 L1093.448,2334.917 C1090.93,2337.301 1088.015,2338.493 1084.705,2338.493 L1084.705,2338.493 L1082.122,2338.493 L1082.122,2340.48 L1142.512,2340.48 L1142.512,2338.493 L1139.93,2338.493 C1136.487,2338.493 1133.504,2337.271 1130.991,2334.818 L1130.991,2334.818 C1128.472,2332.368 1127.215,2329.424 1127.215,2325.979 L1127.215,2325.979 L1127.215,2210.163 L1142.315,2210.163 C1149.731,2210.163 1156.089,2212.713 1161.383,2217.81 L1161.383,2217.81 C1166.682,2222.91 1169.333,2230.161 1169.333,2239.564 L1169.333,2239.564 C1169.333,2252.409 1165.025,2261.217 1156.42,2265.985 L1156.42,2265.985 C1150.721,2269.032 1144.501,2270.553 1137.744,2270.553 L1137.744,2270.553 L1136.753,2270.553 L1135.759,2270.553 L1134.963,2270.553 L1134.268,2270.553 L1133.77,2270.553 L1133.77,2272.54 C1136.552,2273.205 1140.257,2277.177 1144.897,2284.459 L1144.897,2284.459 C1147.544,2288.168 1153.373,2296.775 1162.378,2310.284 L1162.378,2310.284 C1171.382,2323.792 1177.542,2332.93 1180.852,2337.699 L1180.852,2337.699 C1193.697,2357.297 1209.261,2370.477 1227.537,2377.23 L1227.537,2377.23 C1236.012,2380.41 1245.417,2382 1255.748,2382 L1255.748,2382 C1267.4,2382 1278.394,2379.417 1288.724,2374.252 L1288.724,2374.252 L1288.724,2372.265 C1275.216,2372.133 1262.829,2369.216 1251.573,2363.523 L1251.573,2363.523 C1246.278,2360.874 1241.076,2357.495 1235.98,2353.393 L1235.98,2353.393 C1230.88,2349.287 1226.247,2344.95 1222.072,2340.381 L1222.072,2340.381 C1217.902,2335.812 1214.095,2331.341 1210.651,2326.97 L1210.651,2326.97 C1207.207,2322.602 1203.898,2318.398 1200.72,2314.356 L1200.72,2314.356 C1197.54,2310.319 1194.989,2307.076 1193.07,2304.622 L1193.07,2304.622 C1191.15,2302.173 1188.83,2299.358 1186.118,2296.179 L1186.118,2296.179 C1183.402,2293 1180.222,2289.624 1176.584,2286.049 L1176.584,2286.049 C1172.938,2282.472 1168.404,2279.229 1162.975,2276.314 L1162.975,2276.314 C1163.901,2276.448 1164.762,2276.512 1165.558,2276.512 L1165.558,2276.512 C1174.826,2276.512 1183.071,2273.037 1190.289,2266.083 L1190.289,2266.083 C1197.507,2259.131 1201.117,2250.092 1201.117,2238.968 L1201.117,2238.968 C1201.117,2227.843 1197.406,2219.234 1189.99,2213.142 L1189.99,2213.142 C1180.585,2205.329 1167.345,2201.421 1150.26,2201.421 L1150.26,2201.421 z" fill="url(#Gradient_16)"/>
    <path d="M1261.006,2208.275 C1253.658,2214.699 1249.584,2223.009 1248.788,2233.206 L1248.788,2233.206 C1248.655,2234.532 1248.59,2235.857 1248.59,2237.179 L1248.59,2237.179 C1248.59,2250.159 1255.146,2260.755 1268.257,2268.965 L1268.257,2268.965 L1302.029,2291.61 C1308.253,2295.716 1312.922,2300.352 1316.033,2305.516 L1316.033,2305.516 C1319.146,2310.681 1320.701,2315.583 1320.701,2320.217 L1320.701,2320.217 C1320.701,2332.534 1315.14,2341.406 1304.017,2346.837 L1304.017,2346.837 C1298.452,2349.485 1292.163,2350.811 1285.143,2350.811 L1285.143,2350.811 C1278.122,2350.811 1271.668,2349.55 1265.775,2347.035 L1265.775,2347.035 C1259.882,2344.518 1255.012,2341.007 1251.173,2336.507 L1251.173,2336.507 C1244.152,2328.561 1240.644,2319.754 1240.644,2310.084 L1240.644,2310.084 C1240.644,2301.215 1243.291,2292.538 1248.59,2284.062 L1248.59,2284.062 L1246.804,2282.672 C1238.987,2292.604 1235.083,2303.133 1235.083,2314.258 L1235.083,2314.258 C1235.083,2317.703 1235.479,2321.012 1236.276,2324.19 L1236.276,2324.19 C1240.115,2339.025 1249.12,2349.42 1263.294,2355.379 L1263.294,2355.379 C1270.973,2358.688 1279.55,2360.345 1289.019,2360.345 L1289.019,2360.345 C1298.485,2360.345 1307.126,2358.756 1314.942,2355.577 L1314.942,2355.577 C1322.755,2352.399 1329.144,2348.292 1334.111,2343.26 L1334.111,2343.26 C1339.079,2338.229 1342.656,2332.766 1344.838,2326.871 L1344.838,2326.871 C1347.024,2320.981 1348.116,2315.383 1348.116,2310.084 L1348.116,2310.084 C1348.116,2301.876 1345.602,2293.863 1340.57,2286.049 L1340.57,2286.049 C1336.33,2279.426 1330.438,2273.667 1322.888,2268.765 L1322.888,2268.765 L1285.741,2244.529 C1280.839,2241.483 1277.261,2238.668 1275.014,2236.085 L1275.014,2236.085 C1272.759,2233.503 1271.636,2230.359 1271.636,2226.651 L1271.636,2226.651 C1271.636,2222.944 1272.759,2219.499 1275.014,2216.32 L1275.014,2216.32 C1279.646,2210.096 1287.131,2206.984 1297.462,2206.984 L1297.462,2206.984 C1305.933,2206.984 1312.755,2209.069 1317.921,2213.24 L1317.921,2213.24 C1323.086,2217.413 1325.734,2222.944 1325.867,2229.829 L1325.867,2229.829 L1327.657,2229.829 L1330.24,2200.627 L1317.921,2200.627 C1307.194,2199.304 1298.057,2198.64 1290.506,2198.64 L1290.506,2198.64 C1278.191,2198.64 1268.357,2201.853 1261.006,2208.275 z" fill="url(#Gradient_17)"/>
    <path d="M1443.071,2200.03 C1438.698,2200.958 1433.601,2201.421 1427.773,2201.421 L1427.773,2201.421 L1371.95,2201.421 L1371.95,2203.407 L1374.532,2203.407 C1376.65,2203.407 1378.708,2203.939 1380.692,2204.998 L1380.692,2204.998 C1384.665,2207.251 1386.852,2210.692 1387.247,2215.326 L1387.247,2215.326 L1387.247,2325.979 C1387.114,2329.424 1385.825,2332.368 1383.376,2334.818 L1383.376,2334.818 C1380.922,2337.271 1377.976,2338.493 1374.532,2338.493 L1374.532,2338.493 L1371.95,2338.493 L1371.95,2340.48 L1487.371,2340.48 L1496.708,2299.954 L1494.719,2299.954 C1491.542,2310.153 1486.676,2318.032 1480.12,2323.594 L1480.12,2323.594 C1473.565,2329.157 1465.45,2331.938 1455.786,2331.938 L1455.786,2331.938 L1417.047,2331.938 L1417.047,2276.117 L1448.83,2276.117 C1453.599,2276.25 1457.572,2277.903 1460.749,2281.082 L1460.749,2281.082 C1463.93,2284.26 1465.518,2288.302 1465.518,2293.201 L1465.518,2293.201 L1465.518,2294.79 L1467.304,2294.79 L1467.304,2248.9 L1465.518,2248.9 L1465.518,2250.689 C1465.518,2255.456 1463.93,2259.463 1460.749,2262.706 L1460.749,2262.706 C1457.572,2265.953 1453.53,2267.641 1448.633,2267.773 L1448.633,2267.773 L1417.047,2267.773 L1417.047,2209.962 L1430.158,2209.962 C1436.115,2210.229 1440.852,2212.184 1444.36,2215.823 L1444.36,2215.823 C1447.868,2219.469 1449.558,2224.266 1449.428,2230.226 L1449.428,2230.226 L1449.428,2232.61 L1451.611,2232.61 L1451.611,2197.846 C1450.286,2198.375 1447.44,2199.104 1443.071,2200.03 z" fill="url(#Gradient_18)"/>
    <path d="M1139.187,2033.286 L1139.187,2098.621 L1242.246,2098.621 L1307.581,2033.286 z" fill="url(#Gradient_19)"/>
    <path d="M1137.89,2035.28 L1137.89,2100.615 L1240.949,2100.615 L1306.284,2035.28 z" fill="url(#Gradient_20)"/>
    <path d="M1056.239,2098.272 L1056.588,2098.621 L1148.287,2098.621 C1187.049,2059.871 1225.813,2021.119 1264.575,1982.368 L1264.575,1982.368 C1277.219,1938.865 1289.863,1895.363 1302.508,1851.86 L1302.508,1851.86 C1220.417,1933.997 1138.328,2016.134 1056.239,2098.272 z" fill="url(#Gradient_21)"/>
    <path d="M1093.606,1798.625 C1044.54,1847.691 1044.54,1927.242 1093.606,1976.307 L1093.606,1976.307 C1098.232,1980.934 1103.129,1985.122 1108.246,1988.876 L1108.246,1988.876 L1155.638,1941.483 C1149.926,1938.647 1144.564,1934.867 1139.805,1930.108 L1139.805,1930.108 C1116.255,1906.558 1116.255,1868.375 1139.805,1844.824 L1139.805,1844.824 C1163.356,1821.273 1201.539,1821.273 1225.089,1844.824 L1225.089,1844.824 C1247.986,1867.721 1248.615,1904.444 1226.99,1928.109 L1226.99,1928.109 C1252.329,1902.755 1277.668,1877.401 1303.008,1852.047 L1303.008,1852.047 C1297.281,1832.49 1286.714,1814.05 1271.289,1798.625 L1271.289,1798.625 C1246.755,1774.092 1214.601,1761.825 1182.447,1761.825 L1182.447,1761.825 C1150.293,1761.825 1118.139,1774.092 1093.606,1798.625 z" fill="url(#Gradient_22)"/>
    <path d="M1057.764,2100.265 L1058.114,2100.615 L1149.813,2100.615 C1188.576,2061.864 1227.338,2023.112 1266.101,1984.362 L1266.101,1984.362 C1278.745,1940.859 1291.39,1897.356 1304.034,1853.854 L1304.034,1853.854 C1221.944,1935.991 1139.854,2018.128 1057.764,2100.265 z" fill="url(#Gradient_23)"/>
    <path d="M1091.809,1800.432 C1042.743,1849.497 1042.743,1929.048 1091.809,1978.115 L1091.809,1978.115 C1096.434,1982.74 1101.332,1986.928 1106.449,1990.682 L1106.449,1990.682 L1153.841,1943.289 C1148.129,1940.454 1142.767,1936.674 1138.008,1931.915 L1138.008,1931.915 C1114.458,1908.364 1114.458,1870.181 1138.008,1846.63 L1138.008,1846.63 C1161.558,1823.08 1199.742,1823.08 1223.292,1846.63 L1223.292,1846.63 C1246.189,1869.527 1246.818,1906.251 1225.192,1929.916 L1225.192,1929.916 C1250.532,1904.562 1275.871,1879.208 1301.211,1853.854 L1301.211,1853.854 C1295.484,1834.297 1284.917,1815.856 1269.492,1800.432 L1269.492,1800.432 C1244.958,1775.899 1212.804,1763.632 1180.65,1763.632 L1180.65,1763.632 C1148.496,1763.632 1116.342,1775.899 1091.809,1800.432 z" fill="url(#Gradient_24)"/>
    <path d="M1299.459,1890.944 C1252.661,1937.742 1252.661,2013.617 1299.459,2060.415 L1299.459,2060.415 C1346.257,2107.213 1422.132,2107.213 1468.93,2060.415 L1468.93,2060.415 C1515.729,2013.617 1515.729,1937.742 1468.93,1890.944 L1468.93,1890.944 C1445.531,1867.545 1414.863,1855.846 1384.195,1855.846 L1384.195,1855.846 C1353.526,1855.846 1322.858,1867.545 1299.459,1890.944 z M1343.523,2016.35 C1321.061,1993.888 1321.061,1957.47 1343.523,1935.008 L1343.523,1935.008 C1365.986,1912.545 1402.404,1912.545 1424.866,1935.008 L1424.866,1935.008 C1447.328,1957.47 1447.328,1993.888 1424.866,2016.35 L1424.866,2016.35 C1413.635,2027.582 1398.915,2033.197 1384.195,2033.197 L1384.195,2033.197 C1369.475,2033.197 1354.755,2027.582 1343.523,2016.35 z" fill="url(#Gradient_25)"/>
    <path d="M1298.163,1892.937 C1251.364,1939.735 1251.364,2015.61 1298.163,2062.408 L1298.163,2062.408 C1344.961,2109.206 1420.836,2109.206 1467.634,2062.408 L1467.634,2062.408 C1514.432,2015.61 1514.432,1939.735 1467.634,1892.937 L1467.634,1892.937 C1444.235,1869.538 1413.567,1857.839 1382.899,1857.839 L1382.899,1857.839 C1352.23,1857.839 1321.562,1869.538 1298.163,1892.937 z M1342.227,2018.345 C1319.764,1995.883 1319.764,1959.464 1342.227,1937.002 L1342.227,1937.002 C1364.689,1914.54 1401.107,1914.54 1423.569,1937.002 L1423.569,1937.002 C1446.031,1959.464 1446.031,1995.883 1423.569,2018.345 L1423.569,2018.345 C1412.338,2029.575 1397.618,2035.191 1382.898,2035.191 L1382.898,2035.191 C1368.178,2035.191 1353.458,2029.575 1342.227,2018.345 z" fill="url(#Gradient_26)"/>
    <path d="M1521.62,1769.176 C1467.496,1819.14 1402.198,1775.682 1336.208,1819.091 L1336.208,1819.091 C1336.208,1819.091 1285.662,1852.34 1269.011,1918.85 L1269.011,1918.85 C1263.15,1942.263 1264.256,1979.24 1264.333,1979.964 L1264.333,1979.964 C1264.359,1980.213 1264.382,1980.475 1264.409,1980.719 L1264.409,1980.719 C1264.467,1981.253 1264.515,1981.852 1264.575,1982.368 L1264.575,1982.368 C1264.597,1982.324 1264.62,1982.281 1264.641,1982.238 L1264.641,1982.238 C1269.078,1973.316 1274.149,1964.145 1279.893,1955.036 L1279.893,1955.036 C1298.942,1924.832 1325.675,1895.354 1363.635,1878.281 L1363.635,1878.281 C1430.565,1848.178 1488.071,1876.305 1525.215,1839.139 L1525.215,1839.139 C1550.167,1814.174 1551.82,1773.224 1546.578,1735.332 L1546.578,1735.332 C1542.341,1743.969 1534.721,1757.082 1521.62,1769.176 z" fill="url(#Gradient_27)"/>
    <path d="M1520.324,1771.17 C1466.199,1821.134 1400.901,1777.676 1334.911,1821.084 L1334.911,1821.084 C1334.911,1821.084 1284.365,1854.334 1267.715,1920.844 L1267.715,1920.844 C1261.854,1944.256 1262.959,1981.234 1263.037,1981.958 L1263.037,1981.958 C1263.063,1982.206 1263.086,1982.468 1263.113,1982.713 L1263.113,1982.713 C1263.17,1983.247 1263.218,1983.846 1263.279,1984.362 L1263.279,1984.362 C1263.3,1984.318 1263.323,1984.275 1263.344,1984.231 L1263.344,1984.231 C1267.782,1975.311 1272.852,1966.139 1278.596,1957.03 L1278.596,1957.03 C1297.645,1926.826 1324.378,1897.348 1362.339,1880.276 L1362.339,1880.276 C1429.268,1850.172 1486.775,1878.298 1523.918,1841.133 L1523.918,1841.133 C1548.871,1816.167 1550.524,1775.218 1545.282,1737.326 L1545.282,1737.326 C1541.044,1745.963 1533.425,1759.075 1520.324,1771.17 z" fill="url(#Gradient_28)"/>
    <path d="M919.616,1894.051 C872.818,1940.85 872.818,2016.724 919.616,2063.523 L919.616,2063.523 C966.415,2110.321 1042.289,2110.321 1089.087,2063.523 L1089.087,2063.523 C1135.885,2016.725 1135.885,1940.85 1089.087,1894.052 L1089.087,1894.052 C1065.688,1870.653 1035.02,1858.953 1004.351,1858.953 L1004.351,1858.953 C973.683,1858.953 943.016,1870.652 919.616,1894.051 z M963.681,2019.459 C941.219,1996.997 941.219,1960.578 963.681,1938.116 L963.681,1938.116 C986.143,1915.654 1022.561,1915.654 1045.024,1938.116 L1045.024,1938.116 C1067.486,1960.578 1067.486,1996.997 1045.024,2019.459 L1045.024,2019.459 C1033.793,2030.69 1019.072,2036.305 1004.352,2036.305 L1004.352,2036.305 C989.632,2036.305 974.912,2030.69 963.681,2019.459 z" fill="url(#Gradient_29)"/>
    <path d="M918.32,1896.046 C871.521,1942.844 871.521,2018.718 918.32,2065.517 L918.32,2065.517 C965.118,2112.314 1040.992,2112.314 1087.791,2065.517 L1087.791,2065.517 C1134.589,2018.718 1134.589,1942.844 1087.791,1896.046 L1087.791,1896.046 C1064.392,1872.647 1033.723,1860.947 1003.055,1860.947 L1003.055,1860.947 C972.387,1860.947 941.719,1872.647 918.32,1896.046 z M962.384,2021.452 C939.922,1998.99 939.922,1962.572 962.384,1940.11 L962.384,1940.11 C984.846,1917.648 1021.264,1917.648 1043.727,1940.11 L1043.727,1940.11 C1066.189,1962.572 1066.189,1998.99 1043.727,2021.452 L1043.727,2021.452 C1032.497,2032.682 1017.774,2038.297 1003.056,2038.299 L1003.056,2038.299 C988.334,2038.3 973.617,2032.685 962.384,2021.452 z" fill="url(#Gradient_30)"/>
    <path d="M859.111,2021.277 L797.357,2083.03 L886.165,2083.03 L947.92,2021.277 z" fill="url(#Gradient_31)"/>
    <path d="M857.814,2023.27 L796.061,2085.024 L884.868,2085.024 L946.622,2023.27 z" fill="url(#Gradient_32)"/>
    <path d="M811.362,1734.453 L811.362,1736.634 C865.711,1738.51 909.818,1767.155 918.938,1803.714 L918.938,1803.714 C928.897,1843.642 895.397,1886.109 884.26,1900.243 L884.26,1900.243 C871.961,1915.855 859.79,1924.86 856.511,1928.16 L856.511,1928.16 C805.377,1979.598 754.241,2031.039 703.107,2082.479 L703.107,2082.479 L703.107,2084.661 C734.691,2084.055 766.274,2083.449 797.858,2082.842 L797.858,2082.842 C839.886,2040.588 881.914,1998.333 923.943,1956.079 L923.943,1956.079 C923.946,1956.073 923.95,1956.07 923.954,1956.067 L923.954,1956.067 C931.848,1947.884 957.41,1919.349 961.38,1874.399 L961.38,1874.399 C962.882,1857.39 962.257,1827.263 944.723,1797.045 L944.723,1797.045 C940.452,1789.684 927.841,1769.775 903.49,1754.056 L903.49,1754.056 C876.728,1736.781 849.126,1733.199 830.39,1733.199 L830.39,1733.199 C821.955,1733.198 815.32,1733.924 811.362,1734.453 z" fill="url(#Gradient_33)"/>
    <path d="M811.362,1736.635 C865.983,1739.331 910.05,1768.767 918.938,1805.896 L918.938,1805.896 C928.58,1846.174 895.164,1888.585 884.26,1902.425 L884.26,1902.425 C871.961,1918.036 859.79,1927.043 856.511,1930.341 L856.511,1930.341 C805.377,1981.78 754.241,2033.22 703.107,2084.661 L703.107,2084.661 C703.227,2084.779 703.347,2084.904 703.467,2085.024 L703.467,2085.024 L797.858,2085.024 C839.886,2042.77 881.914,2000.515 923.943,1958.26 L923.943,1958.26 C923.946,1958.255 923.95,1958.252 923.954,1958.249 L923.954,1958.249 C931.848,1950.066 957.41,1921.53 961.38,1876.581 L961.38,1876.581 C962.882,1859.572 962.257,1829.445 944.723,1799.227 L944.723,1799.227 C940.452,1791.866 927.841,1771.956 903.49,1756.238 L903.49,1756.238 C876.728,1738.962 849.126,1735.38 830.39,1735.38 L830.39,1735.38 C821.955,1735.38 815.32,1736.106 811.362,1736.635 z" fill="url(#Gradient_34)"/>
    <path d="M750.888,1720.703 C753.081,1723.289 755.751,1727.042 757.824,1732.017 L757.824,1732.017 C761.464,1740.755 761.34,1748.65 760.942,1752.936 L760.942,1752.936 C757.66,1749.04 753.273,1745.104 747.423,1742.101 L747.423,1742.101 C736.288,1736.379 725.867,1737.079 721.7,1737.592 L721.7,1737.592 C721.21,1738.29 720.721,1738.988 720.232,1739.686 L720.232,1739.686 C725.122,1742.927 734.475,1750.201 739.381,1762.834 L739.381,1762.834 C740.83,1766.568 741.629,1770.089 742.055,1773.173 L742.055,1773.173 C738.969,1775.541 735.934,1778.187 733.041,1781.226 L733.041,1781.226 C709.691,1805.769 722.574,1823.072 697.731,1875.945 L697.731,1875.945 C686.985,1898.815 677.537,1909.774 682.855,1921.3 L682.855,1921.3 C687.279,1930.895 699.921,1937.828 709.805,1935.586 L709.805,1935.586 C719.662,1933.35 720.982,1923.319 731.809,1912.151 L731.809,1912.151 C745.746,1897.772 759.931,1897.548 773.983,1891.28 L773.983,1891.28 C789.252,1884.472 808.364,1868.787 823.294,1829.086 L823.294,1829.086 C830.693,1832.437 843.085,1839.436 852.375,1853.068 L852.375,1853.068 C874.548,1885.601 857.939,1924.925 856.511,1928.161 L856.511,1928.161 C865.525,1919.265 878.685,1904.297 889.093,1882.721 L889.093,1882.721 C898.858,1862.477 911.308,1836.667 902.365,1808.448 L902.365,1808.448 C894.506,1783.653 874.399,1770.539 866.694,1765.469 L866.694,1765.469 C833.219,1743.442 797.177,1749.663 788.46,1751.417 L788.46,1751.417 C787.833,1749.621 786.908,1747.303 785.559,1744.715 L785.559,1744.715 C785.559,1744.715 782.675,1739.138 778.423,1734.394 L778.423,1734.394 C768.641,1723.482 756.956,1719.893 752.185,1718.709 L752.185,1718.709 C751.753,1719.374 751.321,1720.038 750.888,1720.703 z" fill="url(#Gradient_35)"/>
    <path d="M759.645,1754.929 C756.364,1751.034 751.976,1747.098 746.126,1744.095 L746.126,1744.095 C734.991,1738.373 724.571,1739.072 720.403,1739.586 L720.403,1739.586 C724.892,1743.392 733.283,1751.59 738.084,1764.827 L738.084,1764.827 C739.419,1768.507 740.227,1771.974 740.758,1775.166 L740.758,1775.166 C737.672,1777.535 734.637,1780.18 731.744,1783.22 L731.744,1783.22 C708.393,1807.763 721.276,1825.066 696.434,1877.939 L696.434,1877.939 C685.688,1900.809 676.24,1911.768 681.558,1923.294 L681.558,1923.294 C685.983,1932.889 698.625,1939.822 708.509,1937.58 L708.509,1937.58 C718.366,1935.345 719.685,1925.314 730.512,1914.145 L730.512,1914.145 C744.449,1899.766 758.634,1899.541 772.687,1893.274 L772.687,1893.274 C787.956,1886.465 807.067,1870.781 821.998,1831.08 L821.998,1831.08 C829.397,1834.431 841.788,1841.43 851.078,1855.062 L851.078,1855.062 C873.251,1887.594 856.642,1926.918 855.214,1930.154 L855.214,1930.154 C864.228,1921.259 877.387,1906.291 887.796,1884.714 L887.796,1884.714 C897.561,1864.47 910.011,1838.66 901.068,1810.442 L901.068,1810.442 C893.209,1785.646 873.102,1772.533 865.397,1767.463 L865.397,1767.463 C831.922,1745.436 795.88,1751.656 787.163,1753.411 L787.163,1753.411 C786.535,1751.615 785.612,1749.297 784.262,1746.708 L784.262,1746.708 C784.262,1746.708 781.378,1741.131 777.126,1736.387 L777.126,1736.387 C767.345,1725.474 755.659,1721.887 750.888,1720.703 L750.888,1720.703 C754.153,1726.645 759.741,1738.839 759.645,1754.929 z" fill="url(#Gradient_36)"/>
    <path d="M251.785,2155.786 C249.795,2156.055 249.067,2157.855 248.333,2159.476 L248.333,2159.476 C245.718,2165.247 244.982,2171.506 243.71,2177.617 L243.71,2177.617 C240.527,2192.915 236.699,2207.959 227.6,2221.06 L227.6,2221.06 C217.69,2235.329 220.581,2255.542 234.087,2266.519 L234.087,2266.519 C238.461,2270.074 242.81,2270.06 247.091,2266.245 L247.091,2266.245 C248.754,2264.763 250.34,2263.071 251.529,2261.199 L251.529,2261.199 C261.615,2245.331 268.057,2228.279 268.019,2209.195 L268.019,2209.195 C268.079,2204.031 267.727,2198.897 266.824,2193.821 L266.824,2193.821 C264.682,2181.786 261.792,2169.964 256.099,2159.028 L256.099,2159.028 C255.288,2157.471 254.279,2155.751 252.289,2155.751 L252.289,2155.751 C252.127,2155.751 251.96,2155.763 251.785,2155.786 z" fill="url(#Gradient_37)"/>
    <path d="M490.102,2135.093 C490.211,2136.045 490.428,2136.998 490.711,2137.915 L490.711,2137.915 C497.043,2158.451 505.939,2177.727 518.935,2194.96 L518.935,2194.96 C519.993,2196.363 521.283,2197.62 522.604,2198.786 L522.604,2198.786 C528.313,2203.82 533.594,2203.489 538.442,2197.658 L538.442,2197.658 C543.23,2191.9 545.532,2185.165 545.741,2177.5 L545.741,2177.5 C545.194,2168.628 542.527,2160.347 536.605,2153.327 L536.605,2153.327 C526.385,2141.214 513.194,2133.406 498.588,2127.943 L498.588,2127.943 C497.178,2127.416 495.93,2127.162 494.852,2127.162 L494.852,2127.162 C491.217,2127.162 489.522,2130.052 490.102,2135.093 z" fill="url(#Gradient_38)"/>
    <path d="M319.688,2158.355 C319.215,2160.429 319.2,2162.463 319.46,2164.565 L319.46,2164.565 C321.158,2178.318 324.683,2191.615 329.314,2204.644 L329.314,2204.644 C331.407,2210.53 333.357,2216.495 336.651,2221.85 L336.651,2221.85 C341.851,2230.308 348.184,2230.947 354.947,2223.772 L354.947,2223.772 C361.058,2217.29 364.009,2209.514 364.175,2200.642 L364.175,2200.642 C364.131,2179.357 347.614,2158.542 327.092,2153.788 L327.092,2153.788 C326.275,2153.599 325.528,2153.503 324.848,2153.503 L324.848,2153.503 C322.091,2153.503 320.435,2155.076 319.688,2158.355 z" fill="url(#Gradient_39)"/>
    <path d="M401.776,2153.549 C405.666,2168.86 411.679,2183.316 420.113,2196.708 L420.113,2196.708 C422.606,2200.666 425.541,2204.314 429.731,2206.644 L429.731,2206.644 C435.724,2209.978 440.797,2208.24 443.38,2201.911 L443.38,2201.911 C445.542,2196.613 445.779,2190.979 445.842,2187.117 L445.842,2187.117 C446.389,2172.097 442.186,2161.023 430.802,2153.442 L430.802,2153.442 C424.765,2149.422 418.044,2146.677 411.178,2144.53 L411.178,2144.53 C409.413,2143.979 407.871,2143.708 406.559,2143.708 L406.559,2143.708 C401.882,2143.708 400.15,2147.15 401.776,2153.549 z" fill="url(#Gradient_40)"/>
    <path d="M518.151,1825.786 C479.688,1834.031 441.469,1843.466 402.612,1849.794 L402.612,1849.794 C369.516,1855.184 353.155,1858.935 338.947,1857.265 L338.947,1857.265 C321.842,1855.253 303.864,1849.639 297.332,1858.084 L297.332,1858.084 C295.082,1860.993 295.793,1863.499 294.888,1873.808 L294.888,1873.808 C293.685,1887.498 291.52,1893.469 290.031,1902.255 L290.031,1902.255 C287.208,1918.93 290.909,1929.48 290.94,1953.193 L290.94,1953.193 C290.967,1974.03 290.711,1994.866 290.692,2015.703 L290.692,2015.703 C290.669,2036.786 289.625,2057.808 285.46,2078.591 L285.46,2078.591 C285.328,2079.248 283.654,2086.967 284.694,2096.967 L284.694,2096.967 C285.421,2103.975 285.834,2107.927 288.948,2110.882 L288.948,2110.882 C295.901,2117.479 310.12,2113.233 312.336,2112.567 L312.336,2112.567 C314.452,2111.933 315.921,2111.221 316.165,2111.182 L316.165,2111.182 C379.397,2101.585 442.362,2090.254 505.749,2081.661 L505.749,2081.661 C525.205,2079.024 544.726,2077.198 564.433,2078.165 L564.433,2078.165 C573.768,2078.629 579.705,2082.945 582.961,2091.592 L582.961,2091.592 C585.896,2099.365 587.087,2107.432 587.454,2115.637 L587.454,2115.637 C588.189,2131.926 586.732,2148.114 584.616,2164.24 L584.616,2164.24 C580.973,2191.969 576.599,2219.572 568.28,2246.371 L568.28,2246.371 C565.608,2254.964 562.469,2263.395 557.167,2270.804 L557.167,2270.804 C551.138,2279.226 543.4,2282.745 532.896,2280 L532.896,2280 C499.446,2271.252 493.443,2269.164 493.443,2269.164 L493.443,2269.164 C453.032,2253.603 448.743,2254.739 447.405,2256.526 L447.405,2256.526 C445.406,2259.195 448.828,2264.849 449.501,2265.962 L449.501,2265.962 C459.679,2282.769 481.212,2271.446 500.165,2286.574 L500.165,2286.574 C500.165,2286.574 519.825,2302.871 529.494,2340.135 L529.494,2340.135 C529.563,2340.397 529.919,2341.689 530.696,2343.267 L530.696,2343.267 C533.712,2349.393 538.62,2351.504 545.07,2349.284 L545.07,2349.284 C551.579,2347.041 555.96,2343.221 557.012,2342.161 L557.012,2342.161 C576.437,2322.609 582.566,2308.292 582.566,2308.292 L582.566,2308.292 C600.746,2265.839 593.054,2228.404 614.308,2174.179 L614.308,2174.179 C615.522,2171.077 625.562,2145.647 631.865,2111.879 L631.865,2111.879 C634.41,2098.236 635.717,2086.603 629.158,2077.221 L629.158,2077.221 C625.329,2071.745 618.55,2068.311 604.988,2061.436 L604.988,2061.436 C593.986,2055.859 587.497,2052.897 578.9,2050.724 L578.9,2050.724 C572.036,2048.991 563.962,2048.341 544.637,2051.953 L544.637,2051.953 C510.54,2058.326 494.225,2065.86 447.603,2071.49 L447.603,2071.49 C445.17,2071.784 443.728,2071.645 443.905,2068.435 L443.905,2068.435 C444.794,2052.526 445.514,2036.609 446.183,2020.699 L446.183,2020.699 C446.23,2019.539 446.43,2018.75 446.91,2018.209 L446.91,2018.209 C447.75,2017.265 449.091,2017.203 449.459,2017.18 L449.459,2017.18 C473.659,2015.625 474.167,2009.644 498.349,2007.804 L498.349,2007.804 C520.987,2006.078 529.081,2005.328 533.636,1998.715 L533.636,1998.715 C536.61,1994.4 538.957,1986.302 535.527,1981.885 L535.527,1981.885 C535.09,1981.322 533.532,1980.029 527.809,1978.266 L527.809,1978.266 C522.603,1976.665 517.139,1976.557 511.486,1977.617 L511.486,1977.617 C497.753,1980.192 464.301,1988.308 450.615,1991.107 L450.615,1991.107 C447.127,1991.819 446.299,1990.953 446.369,1987.441 L446.369,1987.441 C446.604,1975.059 446.709,1962.683 448.21,1950.355 L448.21,1950.355 C448.554,1947.524 449.66,1946.589 452.111,1946.016 L452.111,1946.016 C461.644,1943.789 492.436,1940.369 501.896,1937.855 L501.896,1937.855 C524.51,1931.846 536.235,1933.548 540.424,1925.829 L540.424,1925.829 C540.965,1924.831 544.391,1918.52 541.739,1913.933 L541.739,1913.933 C540.872,1912.432 538.97,1911.211 533.942,1909.385 L533.942,1909.385 C527.964,1907.22 521.56,1907.56 514.893,1909.339 L514.893,1909.339 C495.713,1914.444 487.81,1914.077 481.379,1913.711 L481.379,1913.711 C474.969,1913.345 470.022,1912.979 456.829,1918.033 L456.829,1918.033 C455.278,1918.629 452.382,1919.79 449.849,1918.528 L449.849,1918.528 C445.054,1916.146 445.668,1907.12 444.938,1885.634 L444.938,1885.634 C444.698,1878.627 444.404,1872.881 444.191,1869.06 L444.191,1869.06 C458.999,1865.549 471.154,1863.274 479.402,1861.859 L479.402,1861.859 C501.584,1858.053 522.382,1855.841 536.736,1844.279 L536.736,1844.279 C544.691,1837.867 544.25,1833.752 544.077,1832.747 L544.077,1832.747 C543.411,1828.942 539.057,1826.768 537.742,1826.111 L537.742,1826.111 C534.699,1824.594 531.505,1824.099 528.582,1824.098 L528.582,1824.098 C523.696,1824.098 519.566,1825.481 518.151,1825.786 z M312.315,2086.927 C313.731,2072.354 314.794,2057.76 315.541,2043.135 L315.541,2043.135 C316.62,2022.074 316.62,2000.99 316.914,1979.922 L316.914,1979.922 C317.355,1948.056 319.327,1916.253 320.985,1884.442 L320.985,1884.442 C321.175,1880.829 322.981,1880.729 325.521,1880.574 L325.521,1880.574 C342.862,1879.53 360.206,1878.556 377.535,1877.326 L377.535,1877.326 C388.92,1876.514 400.301,1875.501 411.636,1874.171 L411.636,1874.171 C415.198,1873.745 415.878,1874.766 416.033,1877.975 L416.033,1877.975 C416.458,1886.808 417.212,1895.625 417.931,1905.804 L417.931,1905.804 C417.931,1911.705 417.676,1918.96 418.044,1926.176 L418.044,1926.176 C418.222,1929.688 416.926,1930.739 413.84,1931.737 L413.84,1931.737 C396.991,1937.197 370.308,1940.555 353.052,1944.26 L353.052,1944.26 C350.09,1944.902 347.216,1945.993 344.359,1947.036 L344.359,1947.036 C343.059,1947.508 341.458,1948.065 341.477,1949.852 L341.477,1949.852 C341.497,1951.6 343.121,1952.164 344.359,1952.783 L344.359,1952.783 C351.876,1956.534 360.067,1957.315 368.253,1957.717 L368.253,1957.717 C380.149,1958.29 401.365,1958.072 413.217,1956.618 L413.217,1956.618 C416.736,1956.185 418.233,1956.773 418.121,1960.926 L418.121,1960.926 C417.8,1972.829 417.847,1984.748 418.102,1996.651 L418.102,1996.651 C418.183,2000.363 416.934,2001.454 413.423,2002.174 L413.423,2002.174 C394.234,2006.095 372.337,2010.373 353.206,2014.573 L353.206,2014.573 C350.557,2015.153 347.966,2016.065 345.41,2016.986 L345.41,2016.986 C344.223,2017.419 342.869,2018.138 342.877,2019.608 L342.877,2019.608 C342.885,2021.023 344.141,2021.727 345.32,2022.284 L345.32,2022.284 C352.367,2025.617 359.823,2027.496 367.564,2028.07 L367.564,2028.07 C381.61,2029.105 398.271,2027.202 412.151,2025.415 L412.151,2025.415 C418.009,2024.657 417.986,2024.541 417.916,2030.28 L417.916,2030.28 C417.754,2044.596 417.212,2058.905 415.952,2073.182 L415.952,2073.182 C415.704,2075.967 414.753,2076.841 412.061,2077.413 L412.061,2077.413 C380.072,2084.18 347.646,2087.661 315.143,2090.624 L315.143,2090.624 C314.869,2090.648 314.619,2090.661 314.391,2090.661 L314.391,2090.661 C311.589,2090.661 312.126,2088.843 312.315,2086.927 z" fill="url(#Gradient_41)"/>
    <path d="M251.785,2158.578 C249.795,2158.847 249.067,2160.648 248.333,2162.268 L248.333,2162.268 C245.718,2168.039 244.982,2174.298 243.71,2180.409 L243.71,2180.409 C240.527,2195.707 236.699,2210.752 227.6,2223.852 L227.6,2223.852 C217.69,2238.121 220.581,2258.335 234.087,2269.311 L234.087,2269.311 C238.461,2272.866 242.81,2272.853 247.091,2269.037 L247.091,2269.037 C248.754,2267.555 250.34,2265.863 251.529,2263.991 L251.529,2263.991 C261.615,2248.123 268.057,2231.071 268.019,2211.988 L268.019,2211.988 C268.079,2206.823 267.727,2201.689 266.824,2196.614 L266.824,2196.614 C264.682,2184.578 261.792,2172.756 256.099,2161.82 L256.099,2161.82 C255.288,2160.263 254.279,2158.543 252.289,2158.543 L252.289,2158.543 C252.127,2158.543 251.96,2158.555 251.785,2158.578 z" fill="url(#Gradient_42)"/>
    <path d="M490.102,2137.885 C490.211,2138.837 490.428,2139.79 490.711,2140.707 L490.711,2140.707 C497.043,2161.243 505.939,2180.519 518.935,2197.753 L518.935,2197.753 C519.993,2199.155 521.283,2200.413 522.604,2201.579 L522.604,2201.579 C528.313,2206.612 533.594,2206.281 538.442,2200.45 L538.442,2200.45 C543.23,2194.693 545.532,2187.957 545.741,2180.292 L545.741,2180.292 C545.194,2171.42 542.527,2163.139 536.605,2156.119 L536.605,2156.119 C526.385,2144.006 513.194,2136.197 498.588,2130.736 L498.588,2130.736 C497.178,2130.209 495.93,2129.954 494.852,2129.954 L494.852,2129.954 C491.217,2129.954 489.522,2132.845 490.102,2137.885 z" fill="url(#Gradient_43)"/>
    <path d="M319.688,2161.147 C319.215,2163.221 319.2,2165.255 319.46,2167.357 L319.46,2167.357 C321.158,2181.11 324.683,2194.408 329.314,2207.436 L329.314,2207.436 C331.407,2213.322 333.357,2219.287 336.651,2224.642 L336.651,2224.642 C341.851,2233.1 348.184,2233.739 354.947,2226.564 L354.947,2226.564 C361.058,2220.082 364.009,2212.306 364.175,2203.435 L364.175,2203.435 C364.131,2182.149 347.614,2161.334 327.092,2156.58 L327.092,2156.58 C326.275,2156.391 325.528,2156.295 324.848,2156.295 L324.848,2156.295 C322.091,2156.295 320.435,2157.868 319.688,2161.147 z" fill="url(#Gradient_44)"/>
    <path d="M401.776,2156.341 C405.666,2171.652 411.679,2186.109 420.113,2199.5 L420.113,2199.5 C422.607,2203.459 425.541,2207.106 429.731,2209.437 L429.731,2209.437 C435.725,2212.77 440.797,2211.032 443.38,2204.703 L443.38,2204.703 C445.542,2199.406 445.779,2193.771 445.842,2189.91 L445.842,2189.91 C446.389,2174.889 442.186,2163.815 430.802,2156.235 L430.802,2156.235 C424.765,2152.214 418.044,2149.469 411.178,2147.323 L411.178,2147.323 C409.413,2146.771 407.87,2146.501 406.559,2146.501 L406.559,2146.501 C401.882,2146.501 400.15,2149.944 401.776,2156.341 z" fill="url(#Gradient_45)"/>
    <path d="M518.151,1828.578 C479.688,1836.824 441.469,1846.259 402.612,1852.586 L402.612,1852.586 C369.516,1857.977 353.155,1861.728 338.947,1860.057 L338.947,1860.057 C321.842,1858.046 303.864,1852.431 297.332,1860.877 L297.332,1860.877 C295.082,1863.785 295.793,1866.291 294.888,1876.6 L294.888,1876.6 C293.685,1890.291 291.52,1896.261 290.031,1905.048 L290.031,1905.048 C287.208,1921.723 290.909,1932.273 290.94,1955.986 L290.94,1955.986 C290.967,1976.822 290.711,1997.659 290.692,2018.495 L290.692,2018.495 C290.669,2039.578 289.625,2060.601 285.46,2081.383 L285.46,2081.383 C285.328,2082.04 283.654,2089.759 284.694,2099.759 L284.694,2099.759 C285.421,2106.767 285.834,2110.719 288.948,2113.673 L288.948,2113.673 C295.901,2120.271 310.12,2116.025 312.336,2115.359 L312.336,2115.359 C314.452,2114.726 315.921,2114.013 316.165,2113.975 L316.165,2113.975 C379.397,2104.377 442.362,2093.046 505.749,2084.453 L505.749,2084.453 C525.205,2081.816 544.726,2079.99 564.433,2080.958 L564.433,2080.958 C573.768,2081.421 579.705,2085.737 582.961,2094.384 L582.961,2094.384 C585.896,2102.157 587.087,2110.224 587.454,2118.43 L587.454,2118.43 C588.189,2134.719 586.732,2150.907 584.616,2167.032 L584.616,2167.032 C580.973,2194.76 576.599,2222.364 568.28,2249.163 L568.28,2249.163 C565.608,2257.756 562.469,2266.187 557.167,2273.596 L557.167,2273.596 C551.138,2282.019 543.4,2285.538 532.896,2282.792 L532.896,2282.792 C499.446,2274.045 493.443,2271.957 493.443,2271.957 L493.443,2271.957 C453.032,2256.395 448.743,2257.532 447.405,2259.319 L447.405,2259.319 C445.406,2261.987 448.828,2267.641 449.501,2268.754 L449.501,2268.754 C459.679,2285.561 481.212,2274.238 500.165,2289.366 L500.165,2289.366 C500.165,2289.366 519.825,2305.663 529.494,2342.927 L529.494,2342.927 C529.563,2343.19 529.919,2344.481 530.696,2346.059 L530.696,2346.059 C533.712,2352.185 538.62,2354.296 545.07,2352.077 L545.07,2352.077 C551.579,2349.834 555.96,2346.013 557.012,2344.953 L557.012,2344.953 C576.437,2325.401 582.566,2311.085 582.566,2311.085 L582.566,2311.085 C600.746,2268.631 593.054,2231.197 614.308,2176.971 L614.308,2176.971 C615.522,2173.87 625.562,2148.439 631.865,2114.671 L631.865,2114.671 C634.41,2101.028 635.717,2089.395 629.158,2080.014 L629.158,2080.014 C625.329,2074.537 618.55,2071.104 604.988,2064.228 L604.988,2064.228 C593.986,2058.651 587.497,2055.689 578.9,2053.516 L578.9,2053.516 C572.036,2051.784 563.962,2051.134 544.637,2054.745 L544.637,2054.745 C510.54,2061.118 494.225,2068.652 447.603,2074.283 L447.603,2074.283 C445.17,2074.576 443.728,2074.437 443.905,2071.228 L443.905,2071.228 C444.794,2055.318 445.514,2039.401 446.183,2023.491 L446.183,2023.491 C446.23,2022.331 446.43,2021.542 446.91,2021.001 L446.91,2021.001 C447.75,2020.057 449.091,2019.995 449.459,2019.972 L449.459,2019.972 C473.659,2018.417 474.167,2012.436 498.349,2010.596 L498.349,2010.596 C520.987,2008.871 529.081,2008.12 533.636,2001.508 L533.636,2001.508 C536.61,1997.192 538.957,1989.095 535.527,1984.677 L535.527,1984.677 C535.09,1984.114 533.532,1982.822 527.809,1981.058 L527.809,1981.058 C522.603,1979.457 517.139,1979.349 511.486,1980.409 L511.486,1980.409 C497.753,1982.984 464.301,1991.1 450.615,1993.9 L450.615,1993.9 C447.127,1994.612 446.299,1993.745 446.369,1990.233 L446.369,1990.233 C446.604,1977.85 446.709,1965.476 448.21,1953.147 L448.21,1953.147 C448.554,1950.316 449.66,1949.38 452.111,1948.809 L452.111,1948.809 C461.644,1946.58 492.436,1943.161 501.896,1940.648 L501.896,1940.648 C524.51,1934.638 536.235,1936.34 540.424,1928.621 L540.424,1928.621 C540.965,1927.624 544.391,1921.312 541.739,1916.725 L541.739,1916.725 C540.872,1915.225 538.97,1914.003 533.942,1912.177 L533.942,1912.177 C527.964,1910.012 521.56,1910.353 514.893,1912.131 L514.893,1912.131 C495.713,1917.237 487.81,1916.87 481.379,1916.504 L481.379,1916.504 C474.969,1916.138 470.022,1915.771 456.829,1920.825 L456.829,1920.825 C455.278,1921.421 452.382,1922.582 449.849,1921.321 L449.849,1921.321 C445.054,1918.938 445.668,1909.912 444.938,1888.426 L444.938,1888.426 C444.698,1881.419 444.404,1875.673 444.191,1871.852 L444.191,1871.852 C458.999,1868.341 471.154,1866.067 479.402,1864.651 L479.402,1864.651 C501.584,1860.846 522.382,1858.633 536.736,1847.071 L536.736,1847.071 C544.691,1840.659 544.25,1836.544 544.077,1835.539 L544.077,1835.539 C543.411,1831.734 539.057,1829.561 537.742,1828.903 L537.742,1828.903 C534.699,1827.386 531.505,1826.891 528.582,1826.891 L528.582,1826.891 C523.696,1826.891 519.566,1828.273 518.151,1828.578 z M312.315,2089.719 C313.731,2075.147 314.794,2060.552 315.541,2045.927 L315.541,2045.927 C316.62,2024.866 316.62,2003.782 316.914,1982.714 L316.914,1982.714 C317.355,1950.848 319.327,1919.045 320.985,1887.234 L320.985,1887.234 C321.175,1883.621 322.981,1883.521 325.521,1883.366 L325.521,1883.366 C342.862,1882.322 360.206,1881.348 377.535,1880.118 L377.535,1880.118 C388.92,1879.306 400.301,1878.293 411.636,1876.963 L411.636,1876.963 C415.198,1876.537 415.878,1877.559 416.033,1880.768 L416.033,1880.768 C416.458,1889.601 417.212,1898.418 417.931,1908.596 L417.931,1908.596 C417.931,1914.497 417.676,1921.752 418.044,1928.968 L418.044,1928.968 C418.222,1932.48 416.926,1933.531 413.84,1934.529 L413.84,1934.529 C396.991,1939.99 370.308,1943.348 353.052,1947.053 L353.052,1947.053 C350.09,1947.694 347.216,1948.785 344.359,1949.829 L344.359,1949.829 C343.059,1950.3 341.458,1950.858 341.477,1952.644 L341.477,1952.644 C341.497,1954.392 343.121,1954.957 344.359,1955.576 L344.359,1955.576 C351.876,1959.326 360.067,1960.108 368.253,1960.51 L368.253,1960.51 C380.149,1961.082 401.365,1960.864 413.217,1959.41 L413.217,1959.41 C416.736,1958.977 418.233,1959.565 418.121,1963.719 L418.121,1963.719 C417.8,1975.622 417.847,1987.54 418.102,1999.443 L418.102,1999.443 C418.183,2003.156 416.934,2004.246 413.423,2004.966 L413.423,2004.966 C394.234,2008.887 372.337,2013.166 353.206,2017.365 L353.206,2017.365 C350.557,2017.945 347.966,2018.858 345.41,2019.778 L345.41,2019.778 C344.223,2020.211 342.869,2020.93 342.877,2022.4 L342.877,2022.4 C342.885,2023.815 344.141,2024.52 345.32,2025.076 L345.32,2025.076 C352.367,2028.41 359.823,2030.289 367.564,2030.862 L367.564,2030.862 C381.61,2031.898 398.271,2029.994 412.151,2028.207 L412.151,2028.207 C418.009,2027.449 417.986,2027.333 417.916,2033.072 L417.916,2033.072 C417.754,2047.389 417.212,2061.697 415.952,2075.975 L415.952,2075.975 C415.704,2078.759 414.753,2079.633 412.061,2080.205 L412.061,2080.205 C380.072,2086.972 347.646,2090.454 315.143,2093.416 L315.143,2093.416 C314.868,2093.441 314.618,2093.453 314.39,2093.453 L314.39,2093.453 C311.589,2093.453 312.126,2091.635 312.315,2089.719 z" fill="url(#Gradient_46)"/>
  </g>
</svg>
